<?xml version="1.0" encoding="UTF-8" standalone="no"?>
<svg
   viewBox="0 0 500 500"
   version="1.1"
   id="svg767"
   sodipodi:docname="Health professional team-bro.svg"
   inkscape:version="1.2.1 (9c6d41e410, 2022-07-14)"
   xmlns:inkscape="http://www.inkscape.org/namespaces/inkscape"
   xmlns:sodipodi="http://sodipodi.sourceforge.net/DTD/sodipodi-0.dtd"
   xmlns="http://www.w3.org/2000/svg"
   xmlns:svg="http://www.w3.org/2000/svg">
  <defs
     id="defs771">
    <rect
       x="-1244.7034"
       y="-245.76271"
       width="256.35593"
       height="76.271186"
       id="rect2056" />
  </defs>
  <sodipodi:namedview
     id="namedview769"
     pagecolor="#505050"
     bordercolor="#eeeeee"
     borderopacity="1"
     inkscape:showpageshadow="0"
     inkscape:pageopacity="0"
     inkscape:pagecheckerboard="0"
     inkscape:deskcolor="#505050"
     showgrid="false"
     inkscape:zoom="0.3337544"
     inkscape:cx="-889.87591"
     inkscape:cy="191.75777"
     inkscape:window-width="1366"
     inkscape:window-height="705"
     inkscape:window-x="-8"
     inkscape:window-y="-8"
     inkscape:window-maximized="1"
     inkscape:current-layer="svg767" />
  <g
     id="g2035"
     transform="matrix(1.9046269,0,0,1.9046269,-1322.5659,-283.77069)"
     inkscape:export-filename="g2035.png"
     inkscape:export-xdpi="107.926"
     inkscape:export-ydpi="107.926">
    <g
       id="freepik--background-simple--inject-29">
      <path
         d="m 137.65,109 c 0,0 -47.56,46.09 -61.65,98.38 -14.09,52.29 6.29,107.18 54.22,137.56 47.93,30.38 111.88,4 175.48,12.68 63.6,8.68 122.58,-16.06 130.45,-79.8 7.87,-63.74 -38.14,-72 -65.88,-134 C 342.53,81.82 252.16,6.82 137.65,109 Z"
         style="fill:#92e3a9"
         id="path364" />
      <path
         d="m 137.65,109 c 0,0 -47.56,46.09 -61.65,98.38 -14.09,52.29 6.29,107.18 54.22,137.56 47.93,30.38 111.88,4 175.48,12.68 63.6,8.68 122.58,-16.06 130.45,-79.8 7.87,-63.74 -38.14,-72 -65.88,-134 C 342.53,81.82 252.16,6.82 137.65,109 Z"
         style="opacity:0.7;fill:#ffffff"
         id="path366" />
    </g>
    <g
       id="freepik--Floor--inject-29">
      <ellipse
         cx="255.48"
         cy="408.57999"
         rx="193"
         ry="34.279999"
         style="fill:#92e3a9"
         id="ellipse369" />
      <ellipse
         cx="255.48"
         cy="408.57999"
         rx="193"
         ry="34.279999"
         style="opacity:0.5;fill:#ffffff"
         id="ellipse371" />
    </g>
    <g
       id="freepik--Plants--inject-29">
      <path
         d="m 444.74,231.33 c 0,0 0,-4.2 -5.88,-10.09 -5.88,-5.89 -9.67,-9.24 -9.67,-9.24 0,0 -2.94,9.66 2.52,15.55 a 103.82,103.82 0 0 0 13,11.34 z"
         style="fill:#92e3a9"
         id="path374" />
      <path
         d="m 436.2,257.57 c 0,0 0,-4.2 -5.88,-10.08 -5.88,-5.88 -9.66,-9.25 -9.66,-9.25 0,0 -3,9.67 2.52,15.55 a 103.31,103.31 0 0 0 13,11.34 z"
         style="fill:#92e3a9"
         id="path376" />
      <path
         d="m 444.37,238.49 c 0,0 0.44,-4.18 6.92,-9.41 6.48,-5.23 10.58,-8.17 10.58,-8.17 0,0 1.91,9.92 -4.15,15.19 a 103.68,103.68 0 0 1 -14.15,9.9 z"
         style="fill:#92e3a9"
         id="path378" />
      <path
         d="m 434.06,269.48 c 0,0 0.88,-4.11 7.86,-8.63 6.98,-4.52 11.39,-7 11.39,-7 0,0 0.85,10.07 -5.72,14.68 a 104.21,104.21 0 0 1 -15.12,8.36 z"
         style="fill:#92e3a9"
         id="path380" />
      <path
         d="m 436,303.27 c 0,0 0,-4.21 5.88,-10.09 5.88,-5.88 9.66,-9.24 9.66,-9.24 0,0 2.94,9.66 -2.52,15.54 a 102.89,102.89 0 0 1 -13,11.35 z"
         style="fill:#92e3a9"
         id="path382" />
      <path
         d="m 435.9,311.51 c 0,0 0.59,-4.16 -4.39,-10.82 -4.98,-6.66 -8.25,-10.52 -8.25,-10.52 0,0 -4.29,9.15 0.28,15.75 A 103.2,103.2 0 0 0 434.82,319 Z"
         style="fill:#92e3a9"
         id="path384" />
      <path
         d="m 430.1,336 c 0,0 0,-4.2 5.88,-10.08 5.88,-5.88 9.66,-9.24 9.66,-9.24 0,0 2.95,9.66 -2.52,15.54 a 102.89,102.89 0 0 1 -13,11.35 z"
         style="fill:#92e3a9"
         id="path386" />
      <path
         d="m 434,358.12 c 0,0 -1.07,-4.07 3.13,-11.25 4.2,-7.18 7,-11.39 7,-11.39 0,0 5.29,8.6 1.5,15.68 a 104,104 0 0 1 -9.73,14.27 z"
         style="fill:#92e3a9"
         id="path388" />
      <path
         d="m 445.27,230.25 a 118.12,118.12 0 0 1 -1.61,13.05 c -2.32,12 -8.14,19.76 -10.46,30.62 -2.32,10.86 4.35,24.83 2.56,38.77 -1.79,13.94 -7.21,21.69 -5.66,31 1.55,9.31 9.87,35.4 9.87,35.4"
         style="fill:none;stroke:#263238;stroke-width:0.75px;stroke-linecap:round;stroke-linejoin:round"
         id="path390" />
      <line
         x1="444.31"
         y1="241.28"
         x2="450.64999"
         y2="236.41"
         style="fill:none;stroke:#263238;stroke-width:0.75px;stroke-linecap:round;stroke-linejoin:round"
         id="line392" />
      <line
         x1="444.60999"
         y1="235.67999"
         x2="441.95001"
         y2="230.96001"
         style="fill:none;stroke:#263238;stroke-width:0.75px;stroke-linecap:round;stroke-linejoin:round"
         id="line394" />
      <path
         d="m 433.55,273.42 c 0,0 5.31,-4 10.76,-8"
         style="fill:none;stroke:#263238;stroke-width:0.75px;stroke-linecap:round;stroke-linejoin:round"
         id="path396" />
      <path
         d="m 435.92,264.39 a 82.45,82.45 0 0 0 -9.15,-13.68"
         style="fill:none;stroke:#263238;stroke-width:0.75px;stroke-linecap:round;stroke-linejoin:round"
         id="path398" />
      <path
         d="m 436.2,309.24 a 65.52,65.52 0 0 1 11.36,-15.18"
         style="fill:none;stroke:#263238;stroke-width:0.75px;stroke-linecap:round;stroke-linejoin:round"
         id="path400" />
      <path
         d="m 435.17,315.14 a 73.79,73.79 0 0 0 -5.75,-10.91 c -3.09,-4.57 -3.54,-5.16 -3.54,-5.16"
         style="fill:none;stroke:#263238;stroke-width:0.75px;stroke-linecap:round;stroke-linejoin:round"
         id="path402" />
      <path
         d="m 430.1,343.68 a 69.93,69.93 0 0 1 4.78,-9.67 62.09,62.09 0 0 1 6.19,-8.11"
         style="fill:none;stroke:#263238;stroke-width:0.75px;stroke-linecap:round;stroke-linejoin:round"
         id="path404" />
      <path
         d="m 435.94,365.43 a 18,18 0 0 1 1.59,-9.3 c 2.21,-4.28 4.72,-9.88 5.75,-12.09"
         style="fill:none;stroke:#263238;stroke-width:0.75px;stroke-linecap:round;stroke-linejoin:round"
         id="path406" />
      <path
         d="m 406.22,287.46 c 0,0 -0.46,-2.63 2.59,-7 3.05,-4.37 5.06,-6.85 5.06,-6.85 0,0 2.89,5.75 0.11,10 a 66.18,66.18 0 0 1 -6.94,8.53 z"
         style="fill:#92e3a9"
         id="path408" />
      <path
         d="m 414.42,303 c 0,0 -0.45,-2.63 2.6,-7 3.05,-4.37 5.05,-6.85 5.05,-6.85 0,0 2.9,5.74 0.11,10 a 65.72,65.72 0 0 1 -6.94,8.52 z"
         style="fill:#92e3a9"
         id="path410" />
      <path
         d="m 407.23,291.91 c 0,0 -0.73,-2.57 -5.36,-5.15 -4.63,-2.58 -7.53,-4 -7.53,-4 0,0 -0.11,6.43 4.26,9.07 a 65.55,65.55 0 0 0 9.95,4.68 z"
         style="fill:#92e3a9"
         id="path412" />
      <path
         d="m 417.06,310.22 c 0,0 -1,-2.48 -5.87,-4.55 -4.87,-2.07 -7.9,-3.16 -7.9,-3.16 0,0 0.56,6.4 5.18,8.58 a 66.08,66.08 0 0 0 10.39,3.6 z"
         style="fill:#92e3a9"
         id="path414" />
      <path
         d="m 419.51,331.62 c 0,0 -0.45,-2.63 -4.78,-5.68 -4.33,-3.05 -7.07,-4.75 -7.07,-4.75 0,0 -0.79,6.38 3.27,9.48 a 66.76,66.76 0 0 0 9.4,5.7 z"
         style="fill:#92e3a9"
         id="path416" />
      <path
         d="m 420.47,336.78 c 0,0 -0.83,-2.54 1.58,-7.26 2.41,-4.72 4,-7.49 4,-7.49 0,0 3.68,5.27 1.53,9.9 a 65.69,65.69 0 0 1 -5.65,9.43 z"
         style="fill:#92e3a9"
         id="path418" />
      <path
         d="m 427.85,358 c 0,0 0.31,-2.66 4.45,-6 4.14,-3.34 6.78,-5.14 6.78,-5.14 0,0 1.16,6.32 -2.72,9.64 a 65.13,65.13 0 0 1 -9.06,6.23 z"
         style="fill:#92e3a9"
         id="path420" />
      <path
         d="m 426.76,351.48 c 0,0 -0.46,-2.63 -4.78,-5.68 -4.32,-3.05 -7.07,-4.75 -7.07,-4.75 0,0 -0.79,6.38 3.27,9.47 a 65.64,65.64 0 0 0 9.4,5.71 z"
         style="fill:#92e3a9"
         id="path422" />
      <path
         d="m 426.7,365.81 c 0,0 0.23,-2.67 -3.19,-6.72 -3.42,-4.05 -5.63,-6.38 -5.63,-6.38 0,0 -2.38,6 0.77,10 a 65.27,65.27 0 0 0 7.65,7.89 z"
         style="fill:#92e3a9"
         id="path424" />
      <path
         d="m 405.77,286.85 a 78.21,78.21 0 0 0 2.42,8 c 2.77,7.28 7.25,11.51 9.89,18.07 2.64,6.56 0,16 2.6,24.59 2.6,8.59 6.88,12.81 6.92,18.81 0.04,6 -2.33,22.68 -2.33,22.68"
         style="fill:none;stroke:#263238;stroke-width:0.75px;stroke-linecap:round;stroke-linejoin:round"
         id="path426" />
      <line
         x1="407.57001"
         y1="293.66"
         x2="403.06"
         y2="291.29001"
         style="fill:none;stroke:#263238;stroke-width:0.75px;stroke-linecap:round;stroke-linejoin:round"
         id="line428" />
      <line
         x1="406.76999"
         y1="290.17001"
         x2="407.92999"
         y2="286.92999"
         style="fill:none;stroke:#263238;stroke-width:0.75px;stroke-linecap:round;stroke-linejoin:round"
         id="line430" />
      <path
         d="m 417.81,312.64 c 0,0 -3.77,-1.92 -7.62,-3.82"
         style="fill:none;stroke:#263238;stroke-width:0.75px;stroke-linecap:round;stroke-linejoin:round"
         id="path432" />
      <path
         d="m 415.21,306.91 a 61.14,61.14 0 0 1 4.38,-9.24"
         style="fill:none;stroke:#263238;stroke-width:0.75px;stroke-linecap:round;stroke-linejoin:round"
         id="path434" />
      <path
         d="m 420,335.39 a 42,42 0 0 0 -8.77,-8.29"
         style="fill:none;stroke:#263238;stroke-width:0.75px;stroke-linecap:round;stroke-linejoin:round"
         id="path436" />
      <path
         d="m 421.32,339 a 46.88,46.88 0 0 1 2.42,-7.47 c 1.44,-3.2 1.66,-3.61 1.66,-3.61"
         style="fill:none;stroke:#263238;stroke-width:0.75px;stroke-linecap:round;stroke-linejoin:round"
         id="path438" />
      <path
         d="m 427.39,360.88 a 39.52,39.52 0 0 1 4.85,-5 26.13,26.13 0 0 0 3.14,-2.74"
         style="fill:none;stroke:#263238;stroke-width:0.75px;stroke-linecap:round;stroke-linejoin:round"
         id="path440" />
      <path
         d="m 427.6,356.32 a 44.71,44.71 0 0 0 -4.05,-5.54 39.77,39.77 0 0 0 -4.76,-4.41"
         style="fill:none;stroke:#263238;stroke-width:0.75px;stroke-linecap:round;stroke-linejoin:round"
         id="path442" />
      <path
         d="m 426.3,370.6 a 11.48,11.48 0 0 0 -2,-5.66 c -1.85,-2.44 -4,-5.68 -4.92,-7"
         style="fill:none;stroke:#263238;stroke-width:0.75px;stroke-linecap:round;stroke-linejoin:round"
         id="path444" />
      <path
         d="m 417.84,376.84 h 28.69 v 14.83 a 2.49,2.49 0 0 1 -2.49,2.49 h -23.71 a 2.49,2.49 0 0 1 -2.49,-2.49 z"
         style="fill:#263238;stroke:#263238;stroke-linecap:round;stroke-linejoin:round"
         id="path446" />
      <path
         d="m 80.24,251.16 c 0,0 0,-3.58 -5,-8.58 -5,-5 -8.24,-7.86 -8.24,-7.86 0,0 -2.5,8.22 2.14,13.22 a 88.54,88.54 0 0 0 11.08,9.65 z"
         style="fill:#92e3a9"
         id="path448" />
      <path
         d="m 73,273.47 c 0,0 0,-3.57 -5,-8.57 -5,-5 -8.24,-7.9 -8.24,-7.9 0,0 -2.5,8.21 2.14,13.22 A 88,88 0 0 0 73,279.9 Z"
         style="fill:#92e3a9"
         id="path450" />
      <path
         d="m 79.93,257.24 c 0,0 0.37,-3.55 5.88,-8 5.51,-4.45 9,-6.94 9,-6.94 0,0 1.62,8.43 -3.53,12.92 a 88.34,88.34 0 0 1 -12,8.42 z"
         style="fill:#92e3a9"
         id="path452" />
      <path
         d="m 71.16,283.6 c 0,0 0.75,-3.5 6.68,-7.34 5.93,-3.84 9.69,-6 9.69,-6 0,0 0.72,8.55 -4.87,12.47 a 88.13,88.13 0 0 1 -12.85,7.12 z"
         style="fill:#92e3a9"
         id="path454" />
      <path
         d="m 72.81,312.33 c 0,0 0,-3.57 5,-8.58 5,-5.01 8.19,-7.86 8.19,-7.86 0,0 2.5,8.22 -2.15,13.22 a 87.1,87.1 0 0 1 -11.07,9.65 z"
         style="fill:#92e3a9"
         id="path456" />
      <path
         d="m 72.72,319.34 c 0,0 0.51,-3.53 -3.73,-9.2 -4.24,-5.67 -7,-8.95 -7,-8.95 0,0 -3.64,7.78 0.24,13.4 a 87.9,87.9 0 0 0 9.6,11.12 z"
         style="fill:#92e3a9"
         id="path458" />
      <path
         d="m 67.79,340.13 c 0,0 0,-3.57 5,-8.58 5,-5.01 8.21,-7.86 8.21,-7.86 0,0 2.5,8.22 -2.14,13.22 a 88.54,88.54 0 0 1 -11.08,9.65 z"
         style="fill:#92e3a9"
         id="path460" />
      <path
         d="m 71.13,359 c 0,0 -0.91,-3.45 2.67,-9.56 3.58,-6.11 6,-9.69 6,-9.69 0,0 4.46,7.25 1.2,13.31 a 88.36,88.36 0 0 1 -8.27,12.13 z"
         style="fill:#92e3a9"
         id="path462" />
      <path
         d="m 80.69,250.24 a 99.91,99.91 0 0 1 -1.37,11.1 c -2,10.21 -6.92,16.8 -8.89,26 -1.97,9.2 3.7,21.12 2.18,33 -1.52,11.88 -6.14,18.44 -4.82,26.35 1.32,7.91 8.4,30.11 8.4,30.11"
         style="fill:none;stroke:#263238;stroke-width:0.75px;stroke-linecap:round;stroke-linejoin:round"
         id="path464" />
      <line
         x1="79.879997"
         y1="259.62"
         x2="85.269997"
         y2="255.48"
         style="fill:none;stroke:#263238;stroke-width:0.75px;stroke-linecap:round;stroke-linejoin:round"
         id="line466" />
      <line
         x1="80.129997"
         y1="254.85001"
         x2="77.870003"
         y2="250.84"
         style="fill:none;stroke:#263238;stroke-width:0.75px;stroke-linecap:round;stroke-linejoin:round"
         id="line468" />
      <path
         d="m 70.73,287 c 0,0 4.51,-3.39 9.15,-6.77"
         style="fill:none;stroke:#263238;stroke-width:0.75px;stroke-linecap:round;stroke-linejoin:round"
         id="path470" />
      <path
         d="M 72.74,279.27 A 70.16,70.16 0 0 0 65,267.64"
         style="fill:none;stroke:#263238;stroke-width:0.75px;stroke-linecap:round;stroke-linejoin:round"
         id="path472" />
      <path
         d="M 73,317.41 A 55.82,55.82 0 0 1 82.66,304.5"
         style="fill:none;stroke:#263238;stroke-width:0.75px;stroke-linecap:round;stroke-linejoin:round"
         id="path474" />
      <path
         d="m 72.1,322.43 a 63.07,63.07 0 0 0 -4.88,-9.28 c -2.64,-3.89 -3,-4.39 -3,-4.39"
         style="fill:none;stroke:#263238;stroke-width:0.75px;stroke-linecap:round;stroke-linejoin:round"
         id="path476" />
      <path
         d="m 67.79,346.69 a 60.82,60.82 0 0 1 4.06,-8.22 53,53 0 0 1 5.27,-6.89"
         style="fill:none;stroke:#263238;stroke-width:0.75px;stroke-linecap:round;stroke-linejoin:round"
         id="path478" />
      <path
         d="m 72.76,365.19 a 15.3,15.3 0 0 1 1.35,-7.91 c 1.88,-3.64 4,-8.4 4.89,-10.28"
         style="fill:none;stroke:#263238;stroke-width:0.75px;stroke-linecap:round;stroke-linejoin:round"
         id="path480" />
      <path
         d="m 47.48,298.89 c 0,0 -0.38,-2.24 2.21,-5.92 2.59,-3.68 4.3,-5.82 4.3,-5.82 0,0 2.46,4.88 0.09,8.52 a 55.9,55.9 0 0 1 -5.9,7.25 z"
         style="fill:#92e3a9"
         id="path482" />
      <path
         d="m 54.46,312.1 c 0,0 -0.39,-2.24 2.21,-5.92 2.6,-3.68 4.3,-5.83 4.3,-5.83 0,0 2.46,4.89 0.09,8.53 a 55.9,55.9 0 0 1 -5.9,7.25 z"
         style="fill:#92e3a9"
         id="path484" />
      <path
         d="m 48.34,302.67 c 0,0 -0.62,-2.18 -4.55,-4.37 -3.93,-2.19 -6.4,-3.38 -6.4,-3.38 0,0 -0.1,5.46 3.61,7.72 a 56.19,56.19 0 0 0 8.46,4 z"
         style="fill:#92e3a9"
         id="path486" />
      <path
         d="m 56.7,318.25 c 0,0 -0.85,-2.11 -5,-3.88 -4.15,-1.77 -6.7,-2.69 -6.7,-2.69 0,0 0.48,5.45 4.41,7.3 a 56.22,56.22 0 0 0 8.83,3.07 z"
         style="fill:#92e3a9"
         id="path488" />
      <path
         d="m 58.79,336.44 c 0,0 -0.39,-2.24 -4.07,-4.83 -3.68,-2.59 -6,-4 -6,-4 0,0 -0.72,5.39 2.77,8.02 a 56.5,56.5 0 0 0 8,4.85 z"
         style="fill:#92e3a9"
         id="path490" />
      <path
         d="m 59.6,340.83 c 0,0 -0.7,-2.16 1.34,-6.17 2.04,-4.01 3.43,-6.37 3.43,-6.37 0,0 3.13,4.48 1.3,8.42 a 55.62,55.62 0 0 1 -4.8,8 z"
         style="fill:#92e3a9"
         id="path492" />
      <path
         d="m 65.88,358.91 c 0,0 0.26,-2.26 3.79,-5.06 3.53,-2.8 5.76,-4.37 5.76,-4.37 0,0 1,5.37 -2.31,8.2 A 56.08,56.08 0 0 1 65.41,363 Z"
         style="fill:#92e3a9"
         id="path494" />
      <path
         d="m 65,353.33 c 0,0 -0.39,-2.24 -4.07,-4.83 -3.68,-2.59 -6,-4 -6,-4 0,0 -0.68,5.43 2.78,8.06 a 56.07,56.07 0 0 0 8,4.85 z"
         style="fill:#92e3a9"
         id="path496" />
      <path
         d="m 64.9,365.51 c 0,0 0.19,-2.26 -2.71,-5.71 -2.9,-3.45 -4.79,-5.42 -4.79,-5.42 0,0 -2,5.07 0.65,8.5 a 56.09,56.09 0 0 0 6.51,6.71 z"
         style="fill:#92e3a9"
         id="path498" />
      <path
         d="m 47.1,298.37 a 67.06,67.06 0 0 0 2.06,6.81 c 2.35,6.19 6.17,9.78 8.41,15.36 2.24,5.58 0,13.64 2.21,20.91 2.21,7.27 5.85,10.9 5.88,16 0.03,5.1 -2,19.29 -2,19.29"
         style="fill:none;stroke:#263238;stroke-width:0.75px;stroke-linecap:round;stroke-linejoin:round"
         id="path500" />
      <line
         x1="48.630001"
         y1="304.16"
         x2="44.799999"
         y2="302.14999"
         style="fill:none;stroke:#263238;stroke-width:0.75px;stroke-linecap:round;stroke-linejoin:round"
         id="line502" />
      <line
         x1="47.959999"
         y1="301.20001"
         x2="48.939999"
         y2="298.44"
         style="fill:none;stroke:#263238;stroke-width:0.75px;stroke-linecap:round;stroke-linejoin:round"
         id="line504" />
      <path
         d="m 57.34,320.3 c 0,0 -3.2,-1.63 -6.48,-3.25"
         style="fill:none;stroke:#263238;stroke-width:0.75px;stroke-linecap:round;stroke-linejoin:round"
         id="path506" />
      <path
         d="m 55.13,315.43 a 52.65,52.65 0 0 1 3.73,-7.86"
         style="fill:none;stroke:#263238;stroke-width:0.75px;stroke-linecap:round;stroke-linejoin:round"
         id="path508" />
      <path
         d="m 59.23,339.65 a 35.59,35.59 0 0 0 -7.46,-7"
         style="fill:none;stroke:#263238;stroke-width:0.75px;stroke-linecap:round;stroke-linejoin:round"
         id="path510" />
      <path
         d="m 60.32,342.7 a 40.36,40.36 0 0 1 2.06,-6.35 c 1.23,-2.72 1.41,-3.08 1.41,-3.08"
         style="fill:none;stroke:#263238;stroke-width:0.75px;stroke-linecap:round;stroke-linejoin:round"
         id="path512" />
      <path
         d="m 65.49,361.32 a 33.35,33.35 0 0 1 4.12,-4.27 22.07,22.07 0 0 0 2.67,-2.33"
         style="fill:none;stroke:#263238;stroke-width:0.75px;stroke-linecap:round;stroke-linejoin:round"
         id="path514" />
      <path
         d="m 65.66,357.45 a 37.76,37.76 0 0 0 -3.44,-4.71 33.45,33.45 0 0 0 -4,-3.76"
         style="fill:none;stroke:#263238;stroke-width:0.75px;stroke-linecap:round;stroke-linejoin:round"
         id="path516" />
      <path
         d="m 64.56,369.59 a 9.83,9.83 0 0 0 -1.71,-4.82 c -1.57,-2.07 -3.43,-4.83 -4.18,-5.91"
         style="fill:none;stroke:#263238;stroke-width:0.75px;stroke-linecap:round;stroke-linejoin:round"
         id="path518" />
      <path
         d="m 55.84,376.84 h 28.69 v 14.83 A 2.49,2.49 0 0 1 82,394.16 H 58.33 a 2.49,2.49 0 0 1 -2.49,-2.49 z"
         style="fill:#263238;stroke:#263238;stroke-linecap:round;stroke-linejoin:round"
         id="path520" />
    </g>
    <g
       id="freepik--character-4--inject-29">
      <path
         d="m 329.14,191 a 34.12,34.12 0 0 0 -6.92,15 c -1.84,9.33 -6.37,26.86 -5.8,32.94 0.57,6.08 2,9.47 7.49,10.46 5.49,0.99 8.62,-3.82 9.76,-7.92 a 71.68,71.68 0 0 0 1.69,-8.2 L 336.49,211 c 0,0 -2,-13.39 -2.95,-16.21 -0.95,-2.82 -4.4,-3.79 -4.4,-3.79 z"
         style="fill:#92e3a9;stroke:#263238;stroke-linecap:round;stroke-linejoin:round"
         id="path523" />
      <path
         d="m 402.68,186.54 c 0,0 2,-0.44 3.9,6.5 1.9,6.94 4.19,16.9 7.94,29.18 3.75,12.28 4.48,16.33 4.19,19.07 -0.29,2.74 -2.45,5.78 -10,5.78 -7.55,0 -11,-2.89 -13,-9.39 -2,-6.5 -1.71,-26.58 -1.85,-29.18 -0.14,-2.6 6.5,-23.26 8.82,-21.96 z"
         style="fill:#92e3a9;stroke:#263238;stroke-linecap:round;stroke-linejoin:round"
         id="path525" />
      <path
         d="m 351.1,402.24 c 0,0 -4.91,5.2 -7.8,8.53 -2.89,3.33 -3.9,5.34 0.86,7.36 4.76,2.02 12.14,-1 14.31,-4.33 2.17,-3.33 6.79,-7.08 6.79,-7.08 0,0 2.45,-2.74 -0.73,-6.64 -3.18,-3.9 -11.99,0.57 -13.43,2.16 z"
         style="fill:#ffffff;stroke:#263238;stroke-linecap:round;stroke-linejoin:round"
         id="path527" />
      <path
         d="m 380.57,406.58 c 0,0 4.91,0.72 7.51,3 2.6,2.28 11.71,7.37 17.77,4.91 6.06,-2.46 2.17,-6.5 -1.15,-9.39 a 35.28,35.28 0 0 0 -6.07,-4.33 c 0,0 -9.68,-0.72 -14,1.44 -4.32,2.16 -4.06,4.37 -4.06,4.37 z"
         style="fill:#ffffff;stroke:#263238;stroke-linecap:round;stroke-linejoin:round"
         id="path529" />
      <path
         d="m 345.46,339.39 c 0,0 2.32,17.34 1.16,22.54 -1.16,5.2 -4.48,8.24 -2,13.3 a 52.28,52.28 0 0 1 4,12.28 c 0.29,1.73 -1.3,2.16 0,4 a 16.33,16.33 0 0 1 2.31,3.9 c 0,0.44 -1.73,2.89 -1.73,3.47 0,0.58 0.87,4.19 0.87,4.19 0,0 4.62,-1 7.94,0.29 a 34.19,34.19 0 0 1 6.79,3.9 c 0,0 3,-1.16 4.05,-2.89 a 6.75,6.75 0 0 0 1,-3 c 0.14,-0.58 1.59,-3.62 1.45,-5.93 -0.14,-2.31 -1.74,-7.22 -1.74,-10.11 0,-2.89 2.17,-6.07 2.17,-10.69 0,-4.62 -2.17,-34.24 -2.17,-34.24 l 2,-0.73 c 0,0 3.18,17.63 3.18,25.87 0,8.24 -2.45,18.49 -0.86,20.51 1.59,2.02 3.46,3.76 3.46,4.19 0,0.43 -1.88,3.61 -1.44,5.2 a 63.59,63.59 0 0 1 1.73,6.36 c 0,0.87 1.59,4.19 2.89,4.77 1.3,0.58 2,-0.73 9.68,-2.31 7.68,-1.58 12,-1.16 11.27,-3.47 -0.73,-2.31 -1.44,-5.35 -2.31,-5.93 -0.87,-0.58 0.29,-1 0,-3.17 -0.29,-2.17 -1.88,-4.48 -3.32,-7.95 -1.44,-3.47 0.57,-7.22 1.15,-10.84 0.58,-3.62 -0.29,-9 -1.73,-14.88 -1.44,-5.88 -0.15,-20.37 -0.15,-20.37 l 0.73,-5.63 c 0,0 -22.11,2 -35.69,1.87 l -14.59,-0.14 c 0,0 -0.96,1.02 -0.1,5.64 z"
         style="fill:#263238;stroke:#263238;stroke-linecap:round;stroke-linejoin:round"
         id="path531" />
      <path
         d="m 401.52,279 c 0,0 2,26.3 4.62,40 a 166.14,166.14 0 0 1 2.86,23.43 h -10.51 c -0.44,0 0.72,-48.69 1,-53 A 62.83,62.83 0 0 1 401.52,279 Z"
         style="fill:#92e3a9;stroke:#263238;stroke-linecap:round;stroke-linejoin:round"
         id="path533" />
      <path
         d="m 358,172 c 0,0 -12.28,8.23 -18.63,11.12 -6.35,2.89 -9.83,6.65 -10.26,8 -0.43,1.35 6.93,22.1 6.93,22.1 0,0 -0.43,68.63 -0.43,80.19 0,11.56 -3.61,46.37 -3.18,46.37 0.43,0 12,7.52 27.88,7.95 15.88,0.43 21,-1.88 26,-1.88 5,0 15,0 15.17,-1.44 0.17,-1.44 0.29,-33.38 0.43,-48.26 0.14,-14.88 0.29,-25.43 0,-27.88 -0.29,-2.45 -4.33,-55.34 -4.33,-55.34 0,0 3,-8.81 4.77,-15.89 1.77,-7.08 1.73,-7.95 -0.44,-11.12 -2.17,-3.17 -18.45,-11.81 -21.34,-12.92 a 43.45,43.45 0 0 0 -11,-2.31 C 366.85,170.5 358,172 358,172 Z"
         style="fill:#92e3a9;stroke:#263238;stroke-linecap:round;stroke-linejoin:round"
         id="path535" />
      <path
         d="m 330.87,230.75 c 0,0 1.88,4.33 4.19,6.21 2.31,1.88 7.66,2.75 8.81,5.64 1.15,2.89 0,5.05 -1.3,8.52 -1.3,3.47 -0.57,9.25 -5.34,10 -4.77,0.75 -6.21,-1 -10.12,-3.76 -3.91,-2.76 -6.35,-3.18 -8.66,-7.37 -2.31,-4.19 -3,-10 -1,-13.14"
         style="fill:#92e3a9;stroke:#263238;stroke-linecap:round;stroke-linejoin:round"
         id="path537" />
      <path
         d="M 357.46,166.31 357,178.45 c 0,0 -1.15,1.73 5.78,2.16 a 52.41,52.41 0 0 0 13.29,-1 l -1.15,-13.14 c 0,0 -7.23,3 -11.42,1.59 a 40.42,40.42 0 0 0 -6.04,-1.75 z"
         style="fill:#ffffff;stroke:#263238;stroke-linecap:round;stroke-linejoin:round"
         id="path539" />
      <path
         d="m 354.71,163.28 c 0,0 -1,14 -1.73,18.2 -0.73,4.2 -0.58,6.79 1,7.8 1.58,1.01 10.83,4.63 15.6,4.34 4.77,-0.29 12,-4.63 12.57,-5.93 0.57,-1.3 -4.32,-21.69 -4.32,-21.69 l -0.73,0.87 c 0,0 1.3,10.69 0.87,11 -0.43,0.31 -17.19,-0.87 -20.23,-1 -3.04,-0.13 -2.16,-0.29 -2.16,-0.29 l -0.15,-12.28 z"
         style="fill:#ffffff;stroke:#263238;stroke-linecap:round;stroke-linejoin:round"
         id="path541" />
      <path
         d="m 354.25,179.94 c 0,0 15.79,2.33 25.26,0.5"
         style="fill:none;stroke:#263238;stroke-width:0.5px;stroke-miterlimit:10"
         id="path543" />
      <path
         d="m 353.59,183.6 c 0,0 11,4.65 25.92,0.49"
         style="fill:none;stroke:#263238;stroke-width:0.5px;stroke-miterlimit:10"
         id="path545" />
      <path
         d="m 354.75,187.92 c 0,0 10.47,5.65 24.76,-0.34"
         style="fill:none;stroke:#263238;stroke-width:0.5px;stroke-miterlimit:10"
         id="path547" />
      <path
         d="m 380.29,148.54 c 0.36,-4.44 0.66,-9 -0.44,-11.27 -1.73,-3.61 -6.94,-7.8 -14.45,-7.51 -7.51,0.29 -13.87,3.18 -13.72,12.42 0,0 0.32,2.75 0.69,6.12 a 8.28,8.28 0 0 0 -0.69,4.72 11.63,11.63 0 0 0 1.59,4.35 c 0.07,0.86 0.12,1.6 0.14,2.15 0.14,3.9 2.74,8.52 5.06,10.11 2.32,1.59 6.64,4.05 9.39,4.05 2.75,0 7.65,-2.6 10,-6.36 1.82,-3 2,-5 2,-8.53 H 380 a 31.34,31.34 0 0 0 0.73,-5.64 17.43,17.43 0 0 0 -0.44,-4.61 z"
         style="fill:#ffffff;stroke:#263238;stroke-linecap:round;stroke-linejoin:round"
         id="path549" />
      <path
         d="m 353,149.41 c 0,0 0.43,3.61 1.15,3.46 0.72,-0.15 1.59,-5.34 1.59,-5.34 z"
         style="fill:#263238;stroke:#263238;stroke-linecap:round;stroke-linejoin:round"
         id="path551" />
      <path
         d="m 377.54,149 c 0,0 0,4.05 1,4.63 1,0.58 1.73,-3.47 1.73,-3.47 A 7.17,7.17 0 0 0 377.54,149 Z"
         style="fill:#263238;stroke:#263238;stroke-linecap:round;stroke-linejoin:round"
         id="path553" />
      <path
         d="m 379.85,137.27 c -1.73,-3.61 -6.94,-7.8 -14.45,-7.51 -7.51,0.29 -13.87,3.18 -13.72,12.42 0,0 0.32,2.75 0.69,6.12 a 8.33,8.33 0 0 0 -0.77,3.11 c 2.81,-2.25 8.07,-5.47 14.67,-4.89 a 34.25,34.25 0 0 1 14.44,5.09 16.92,16.92 0 0 0 -0.42,-3.07 c 0.36,-4.44 0.71,-8.97 -0.44,-11.27 z"
         style="fill:#92e3a9;stroke:#263238;stroke-linecap:round;stroke-linejoin:round"
         id="path555" />
      <path
         d="m 364.39,152 -0.87,5.2 c 0,0 -1.59,0.14 -1,1.15 0.59,1.01 3.61,2.17 5.06,1.74 1.45,-0.43 2.89,-1.88 2.74,-2.46 a 1,1 0 0 0 -0.72,-0.72 l -1.88,-5.35"
         style="fill:none;stroke:#263238;stroke-linecap:round;stroke-linejoin:round"
         id="path557" />
      <path
         d="m 362.8,162.7 a 17.14,17.14 0 0 0 8.38,-0.29"
         style="fill:none;stroke:#263238;stroke-linecap:round;stroke-linejoin:round"
         id="path559" />
      <path
         d="m 361.21,151.79 c 0,0.76 -0.39,1.37 -0.87,1.37 -0.48,0 -0.86,-0.61 -0.86,-1.37 0,-0.76 0.39,-1.37 0.86,-1.37 0.47,0 0.87,0.58 0.87,1.37 z"
         style="fill:#263238"
         id="path561" />
      <path
         d="m 372.19,151.72 c 0,0.76 -0.39,1.37 -0.86,1.37 -0.47,0 -0.87,-0.61 -0.87,-1.37 0,-0.76 0.39,-1.37 0.87,-1.37 0.48,0 0.86,0.65 0.86,1.37 z"
         style="fill:#263238"
         id="path563" />
      <path
         d="m 357.89,149.7 c 0,0 1,-2.46 4.19,-1.59"
         style="fill:none;stroke:#263238;stroke-linecap:round;stroke-linejoin:round"
         id="path565" />
      <path
         d="m 368.58,148.25 c 0,0 3,-2.17 5.2,1.59"
         style="fill:none;stroke:#263238;stroke-linecap:round;stroke-linejoin:round"
         id="path567" />
      <path
         d="m 341.27,248.81 c 0,0 8.82,2 10.84,1.59 a 12.82,12.82 0 0 0 6.93,-3.76 c 2.61,-2.6 4.77,-4.77 4.77,-2.6 a 6.45,6.45 0 0 1 -1.88,4.62 c -1,1.16 -2.89,2.46 -3.32,4.34 -0.43,1.88 0.15,3.32 2.46,4.19 2.31,0.87 9.53,2.16 9.53,4 0,1.84 -0.58,6.22 -3.18,7.66 -2.6,1.44 -8.95,0.43 -8.95,0.43 0,0 5.2,2.89 4.19,3.62 -1.01,0.73 -4.05,-0.29 -5.49,-1.59 -1.44,-1.3 -2,-1.45 -6.22,-4.48 -4.22,-3.03 -7.8,-6.65 -9.82,-7.8 a 12.06,12.06 0 0 1 -3,-2 c -1.16,-1 -1.59,-3 -0.73,-5.34 a 5.43,5.43 0 0 1 3.18,-3 z"
         style="fill:#ffffff;stroke:#263238;stroke-linecap:round;stroke-linejoin:round"
         id="path569" />
      <path
         d="m 409.9,232.34 c 0,0 -10.4,2 -11.41,2.74 -1.01,0.74 0,3.76 0,3.76 0,0 -8.82,4.19 -12.14,6.5 -3.32,2.31 -0.29,6.94 -0.14,7.51 0,0 2.6,8.53 6.93,11.42 4.33,2.89 8.81,1.87 13.15,-2.75 4.34,-4.62 7.08,-11 9.1,-13.15 2.02,-2.15 4.19,-4.19 3.47,-9 -0.72,-4.81 -4.48,-5.35 -4.48,-5.35"
         style="fill:#92e3a9;stroke:#263238;stroke-linecap:round;stroke-linejoin:round"
         id="path571" />
      <path
         d="m 388.66,251.41 c 0,0 -6.64,1.73 -8.52,1.88 -1.88,0.15 -2.17,0.43 -3.32,-0.44 -1.15,-0.87 -6.51,-4 -9,-6.93 -2.49,-2.93 -4.34,-3.47 -4.05,-1.88 0.29,1.59 -0.29,2.74 1.45,3.9 1.74,1.16 3.46,4.34 3.46,5.64 0,1.3 -0.14,1.73 -3.75,3 -3.61,1.27 -11.85,2.89 -11,3.9 0.85,1.01 2.6,1.3 4.48,1.16 1.88,-0.14 9.68,-1.3 10.25,-0.87 a 1.73,1.73 0 0 1 -0.43,2.74 c -1.3,0.87 -5.92,0.87 -8.67,1.16 -2.75,0.29 -2.89,1 -1.73,1.59 a 15.2,15.2 0 0 0 5.83,0.95 c 2.31,0 5,-0.23 3.85,0.49 -1.15,0.72 -2.75,0.87 -5.64,1.3 -2.89,0.43 -3.9,-0.86 -3.46,0.29 0.44,1.15 3.9,1.16 8.23,1 a 23.52,23.52 0 0 0 11.13,-3.46 c 2.89,-1.74 13.43,-4.34 14.16,-4.91 0.73,-0.57 1.87,-3.91 1.15,-7.95 -0.72,-4.04 -4.42,-2.56 -4.42,-2.56 z"
         style="fill:#ffffff;stroke:#263238;stroke-linecap:round;stroke-linejoin:round"
         id="path573" />
      <path
         d="m 400.08,234.5 a 52.75,52.75 0 0 1 9.1,-6.06"
         style="fill:none;stroke:#263238;stroke-linecap:round;stroke-linejoin:round"
         id="path575" />
      <path
         d="m 360.2,261.72 c 0,0 8.22,-0.94 9.05,-1.06 0.83,-0.12 2.35,0.82 1.64,1.88 -0.71,1.06 -1.06,0.82 -4,1.41 a 52.68,52.68 0 0 1 -8.82,0.59"
         style="fill:#ffffff;stroke:#263238;stroke-linecap:round;stroke-linejoin:round"
         id="path577" />
      <path
         d="m 361.14,267.36 c 0,0 9.16,-0.59 8.93,0.12 -0.23,0.71 -0.82,1.64 -4.11,1.88 -3.29,0.24 -7,0.47 -10.11,-1.06"
         style="fill:#ffffff;stroke:#263238;stroke-linecap:round;stroke-linejoin:round"
         id="path579" />
    </g>
    <g
       id="freepik--character-3--inject-29">
      <path
         d="m 269.52,395.12 c 0,0 1.56,1.55 -4.66,5.35 -6.22,3.8 -11.41,5.53 -11.41,7.78 0,2.25 6.91,4.49 14,2.76 7.09,-1.73 10,-2.24 14,-2.93 4,-0.69 5.19,-4.15 5.19,-9 0,-4.85 -10.54,-6 -11.75,-6.22 -1.21,-0.22 -4.5,0.36 -5.37,2.26 z"
         style="fill:#ffffff;stroke:#263238;stroke-linecap:round;stroke-linejoin:round"
         id="path582" />
      <path
         d="m 285.07,399.09 a 46.1,46.1 0 0 1 -9.5,10.37 c -5.36,4 -6.05,5.87 -3.28,6.91 2.77,1.04 10.71,1.38 16.07,-0.69 5.36,-2.07 7.95,-5.18 9.5,-6.57 1.55,-1.39 2.42,-0.52 2.42,-6.05 0,-5.53 -5.88,-7.43 -10.71,-7.08 -4.83,0.35 -4.5,3.11 -4.5,3.11 z"
         style="fill:#ffffff;stroke:#263238;stroke-linecap:round;stroke-linejoin:round"
         id="path584" />
      <path
         d="m 264,286.43 c 0,0 1.56,31.45 2.08,40.61 0.52,9.16 4.32,43.54 5,51.66 0.68,8.12 0.69,10.54 0.69,10.54 0,0 -3.11,2.25 -3.11,2.77 0,0.52 -0.35,5.35 -0.35,5.35 a 33.1,33.1 0 0 0 7.26,2.94 26.57,26.57 0 0 0 8.47,0.52 c 0,0 5.7,1.9 10.54,3.28 4.84,1.38 6.74,0.69 6.74,0.69 0,0 1.38,-6.91 1.72,-9.16 0.34,-2.25 6.22,-26.09 6.22,-37 0,-10.91 -1.38,-15.9 -3.45,-22.29 -2.07,-6.39 2.76,-29.21 4.49,-37.5 a 136.63,136.63 0 0 0 2.25,-14 c 0,0 -14.86,7.64 -48.55,1.59 z"
         style="fill:#263238;stroke:#263238;stroke-linecap:round;stroke-linejoin:round"
         id="path586" />
      <path
         d="m 283.35,297 c 0,0 -0.87,23 -0.87,31.79 0,8.79 2.25,19.53 3.28,29.9 1.03,10.37 0.35,27.3 -0.86,30.24 -1.21,2.94 -2.07,4 -1.9,6.22 0.17,2.22 0.35,5.35 0.35,5.35"
         style="fill:none;stroke:#ffffff;stroke-linecap:round;stroke-linejoin:round"
         id="path588" />
      <path
         d="m 280.58,163.22 c 0,0 -1,-3.11 -2.6,-1.9 -1.6,1.21 -0.51,3.46 0.87,5.71 1.38,2.25 2.93,2.76 3.11,1.55 0.18,-1.21 -1.38,-5.36 -1.38,-5.36 z"
         style="fill:#ffffff;stroke:#263238;stroke-linecap:round;stroke-linejoin:round"
         id="path590" />
      <path
         d="m 280.58,164.61 -1.73,-5 c 0,0 -7.25,-2.94 -5,-10.2 2.25,-7.26 19.53,-13.82 24.19,-13.82 4.66,0 13.65,6.22 15.21,13.48 1.56,7.26 -3.63,13.82 -3.63,13.82 0,0 -2.25,6.39 -4,6.05 -1.75,-0.34 -0.7,-5.36 -2.94,-9.33 -2.24,-3.97 -3.63,-6 -6.05,-5 -2.42,1 -12.44,4 -13.3,5.35 -0.86,1.35 -2.4,5.51 -2.75,4.65 z"
         style="fill:#263238;stroke:#263238;stroke-linecap:round;stroke-linejoin:round"
         id="path592" />
      <path
         d="m 315.66,235.8 0.86,4.49 -10.71,16.59 2.42,3.8 a 74,74 0 0 0 13.82,-11.92 c 6.91,-7.6 7.6,-8.64 7.6,-11.75 0,-3.11 -2.41,-8.47 -2.41,-8.47 0,0 -4.84,7.26 -11.58,7.26 z"
         style="fill:#ffffff;stroke:#263238;stroke-linecap:round;stroke-linejoin:round"
         id="path594" />
      <path
         d="m 257.08,225.78 c 0,0 -3.46,8.29 -2.76,10.88 0.7,2.59 12.61,17.8 12.61,17.8 l 2.07,-5.7 c 0,0 -4.49,-9.33 -4.49,-12.44 0,-3.11 1.56,-9.16 1.56,-9.16 z"
         style="fill:none;stroke:#263238;stroke-linecap:round;stroke-linejoin:round"
         id="path596" />
      <path
         d="m 287.67,184.65 c 0,0 -14.86,5.7 -17.63,6.57 -2.77,0.87 -4.67,1.38 -4.84,2.24 -0.17,0.86 -8.46,22.12 -10,25.06 -1.54,2.94 -3.63,6.22 -3.63,6.22 a 69.58,69.58 0 0 0 6.22,3.46 39,39 0 0 0 6.74,2.24 l 1,11.93 -10.2,44.92 c 0,0 20.39,5.7 34,5.19 a 84.15,84.15 0 0 0 25.4,-4.84 c 2.6,-0.87 6.57,-2.42 6.57,-2.42 l -13,-48.9 1,-7.26 0.69,7.09 c 0,0 6.91,1.55 10.88,0.51 3.97,-1.04 9,-5 9,-5 l -12.79,-39.91 -23.84,-6.57 z"
         style="fill:#92e3a9;stroke:#263238;stroke-linecap:round;stroke-linejoin:round"
         id="path598" />
      <path
         d="m 304.46,188.22 -11.09,-3.05 -5.7,-0.52 -5.13,2 c -0.1,2.72 -0.23,7.35 -0.23,12.9 0,9 1,16.94 3.63,15.38 2.63,-1.56 15,-18.31 17.1,-23 a 25.9,25.9 0 0 0 1.42,-3.71 z"
         style="fill:#92e3a9;stroke:#263238;stroke-linecap:round;stroke-linejoin:round"
         id="path600" />
      <path
         d="m 309.44,229.06 c -0.35,-0.34 -1.9,-15.21 -1.9,-15.21"
         style="fill:none;stroke:#263238;stroke-linecap:round;stroke-linejoin:round"
         id="path602" />
      <path
         d="m 264.51,230.44 c 0,0 -1.21,-5.87 -0.86,-8.12 0.35,-2.25 2.76,-15.55 2.76,-15.55"
         style="fill:none;stroke:#263238;stroke-linecap:round;stroke-linejoin:round"
         id="path604" />
      <path
         d="m 270.39,255.33 c 0,0 -7.95,2.59 -7.95,3.11 0,0.52 -0.18,2.93 -0.18,2.93 l 8.13,-3.8 z"
         style="fill:none;stroke:#263238;stroke-linecap:round;stroke-linejoin:round"
         id="path606" />
      <polygon
         points="309.26,261.55 291.47,256.54 291.12,258.78 308.4,263.27 "
         style="fill:none;stroke:#263238;stroke-linecap:round;stroke-linejoin:round"
         id="polygon608" />
      <path
         d="m 297.17,222.18 a 0.89,0.89 0 0 1 -0.89,-0.89 c 0,-3 1.49,-10.24 2.94,-17.24 1.15,-5.57 2.24,-10.84 2.24,-12.49 a 6.4,6.4 0 0 0 -1.94,-4.91 c -2.07,-1.92 -5.75,-2.7 -10.93,-2.32 -10.81,0.8 -11.6,25 -11.61,25.23 a 0.89,0.89 0 0 1 -0.89,0.87 v 0 a 0.89,0.89 0 0 1 -0.86,-0.92 c 0,-1.06 0.85,-26 13.26,-27 5.7,-0.41 9.83,0.52 12.27,2.8 a 8.21,8.21 0 0 1 2.51,6.21 c 0,1.83 -1.05,6.94 -2.27,12.85 -1.37,6.59 -2.91,14.06 -2.91,16.88 a 0.89,0.89 0 0 1 -0.92,0.93 z"
         style="fill:#263238;stroke:#263238;stroke-linecap:round;stroke-linejoin:round"
         id="path610" />
      <path
         d="m 285.76,179.3 c 0,0 0,5 -0.17,6 -0.17,1 0,5.36 0,11.24 0,5.88 1,9.84 2.42,8.46 1.42,-1.38 10.54,-13.65 11.06,-16.07 a 21.81,21.81 0 0 0 0.52,-4.14 l 0.69,-6.92 c 0,0 -10.71,3.11 -15.21,1.73"
         style="fill:#ffffff;stroke:#263238;stroke-linecap:round;stroke-linejoin:round"
         id="path612" />
      <path
         d="m 303.56,168.93 a 82.08,82.08 0 0 1 0.69,18.14 c -0.69,10.54 -1.94,15.48 -5,17 -3.06,1.52 0.89,3.24 5.55,3.41 4.66,0.17 11.58,-0.52 12.79,-14.34 1.21,-13.82 -8.81,-22.81 -9.68,-24.54 a 2.4,2.4 0 0 0 -4.35,0.33 z"
         style="fill:#263238;stroke:#263238;stroke-linecap:round;stroke-linejoin:round"
         id="path614" />
      <path
         d="m 269.87,221.66 h -0.07 a 0.88,0.88 0 0 1 -0.82,-1 c 0,-0.49 1,-12.06 7.11,-12.06 6.11,0 6.25,11.13 6.25,11.61 a 0.89,0.89 0 0 1 -0.89,0.89 v 0 a 0.89,0.89 0 0 1 -0.89,-0.89 c 0,-0.1 -0.13,-9.82 -4.46,-9.82 -3.72,0 -5.11,7.51 -5.33,10.41 a 0.9,0.9 0 0 1 -0.9,0.86 z"
         style="fill:#263238"
         id="path616" />
      <path
         d="m 269.87,220.08 c 0,0 0,8.64 0.34,10.36 0.34,1.72 4.67,5.36 9.85,7.61"
         style="fill:none;stroke:#263238;stroke-width:2px;stroke-linecap:round;stroke-linejoin:round"
         id="path618" />
      <path
         d="m 281.1,219 c 0,0 0.34,8.64 -1.38,12.44 -1.72,3.8 -6.91,5.36 -9.16,6.22"
         style="fill:none;stroke:#263238;stroke-width:2px;stroke-linecap:round;stroke-linejoin:round"
         id="path620" />
      <path
         d="m 282.48,238.39 a 1.56,1.56 0 0 0 -3.11,0 1.56,1.56 0 1 0 3.11,0 z"
         style="fill:#ffffff;stroke:#263238;stroke-linecap:round;stroke-linejoin:round"
         id="path622" />
      <path
         d="m 271.77,238.05 a 1.56,1.56 0 1 0 -1.56,1.55 1.56,1.56 0 0 0 1.56,-1.55 z"
         style="fill:#ffffff;stroke:#263238;stroke-linecap:round;stroke-linejoin:round"
         id="path624" />
      <path
         d="m 302.35,224.57 a 5.36,5.36 0 1 0 -5.35,5.35 5.36,5.36 0 0 0 5.35,-5.35 z"
         style="fill:#ffffff;stroke:#263238;stroke-linecap:round;stroke-linejoin:round"
         id="path626" />
      <path
         d="m 299.93,224.57 a 2.94,2.94 0 1 0 -2.93,2.94 2.94,2.94 0 0 0 2.93,-2.94 z"
         style="fill:#ffffff;stroke:#263238;stroke-linecap:round;stroke-linejoin:round"
         id="path628" />
      <path
         d="m 299.93,151.13 c 0,0 -15.03,5.87 -16.93,6.87 a 13.44,13.44 0 0 1 -2.59,1.21 c 0,0 0.86,13.13 1.21,16.59 0.35,3.46 5.87,6.74 10.71,6.57 4.84,-0.17 8.81,-2.77 9.68,-4.32 0.87,-1.55 3.28,-6.22 3.28,-6.22 0,0 5.7,-1 6,-6.05 0.3,-5.05 -1.38,-4 -3.28,-2.94 -1.9,1.06 -2.94,1.73 -2.94,1.73 a 7.71,7.71 0 0 0 -0.87,-5.36 c -1.5,-2.55 -3.92,-5.66 -4.27,-8.08 z"
         style="fill:#ffffff;stroke:#263238;stroke-linecap:round;stroke-linejoin:round"
         id="path630" />
      <path
         d="m 287.67,167.2 c 0,0 1.38,2.07 2.59,1.9"
         style="fill:none;stroke:#263238;stroke-linecap:round;stroke-linejoin:round"
         id="path632" />
      <path
         d="m 287.15,170.31 c 0,0 2.93,2.77 8,0.52"
         style="fill:none;stroke:#263238;stroke-linecap:round;stroke-linejoin:round"
         id="path634" />
      <path
         d="m 294.58,163.05 c 0,0 3.54,-1.55 5.53,1.21"
         style="fill:none;stroke:#263238;stroke-width:1.5px;stroke-linecap:round;stroke-linejoin:round"
         id="path636" />
      <path
         d="m 287.67,162.71 c 0,0 -2.77,-1.73 -4.84,-0.35"
         style="fill:none;stroke:#263238;stroke-width:1.5px;stroke-linecap:round;stroke-linejoin:round"
         id="path638" />
      <path
         d="m 289.7,162.06 a 4.88,4.88 0 1 1 -4.87,-4.87 4.88,4.88 0 0 1 4.87,4.87 z"
         style="fill:none;stroke:#263238;stroke-linecap:round;stroke-linejoin:round"
         id="path640" />
      <path
         d="m 301.85,163.43 a 4.88,4.88 0 1 1 -4.88,-4.87 4.89,4.89 0 0 1 4.88,4.87 z"
         style="fill:none;stroke:#263238;stroke-linecap:round;stroke-linejoin:round"
         id="path642" />
      <path
         d="m 289.7,162.06 a 2.06,2.06 0 0 1 2.05,0.43"
         style="fill:none;stroke:#263238;stroke-linecap:round;stroke-linejoin:round"
         id="path644" />
      <line
         x1="302.01999"
         y1="164.2"
         x2="306.81"
         y2="163.52"
         style="fill:none;stroke:#263238;stroke-linecap:round;stroke-linejoin:round"
         id="line646" />
    </g>
    <g
       id="freepik--character-1--inject-29">
      <path
         d="M 98.86,396.38 A 42.44,42.44 0 0 1 94,404.31 c -2.89,3.55 -3.62,6.08 -0.48,8.28 3.14,2.2 8.86,1.86 11.74,-1.69 2.88,-3.55 7.52,-13.34 7.52,-13.34 0,0 -10.12,-3.04 -13.92,-1.18 z"
         style="fill:#ffffff;stroke:#263238;stroke-linecap:round;stroke-linejoin:round"
         id="path649" />
      <path
         d="m 134.08,398.57 c 0,0 5,6.59 8,10 3,3.41 8.67,5.06 11.7,4.89 3.03,-0.17 7.38,-1.18 4.44,-6.58 -2.94,-5.4 -9.08,-10.64 -9.08,-10.64 0,0 -6.42,0 -10.83,-0.51 -4.41,-0.51 -4.45,1.83 -4.23,2.84 z"
         style="fill:#ffffff;stroke:#263238;stroke-linecap:round;stroke-linejoin:round"
         id="path651" />
      <path
         d="m 101.62,274.45 c 0,0 -2,23 -1.32,39.18 0.68,16.18 -2.3,48.47 -3.3,56.37 -1,7.9 0.91,20.94 1,23.81 0.09,2.87 0.19,4.4 0.19,4.4 0,0 1.48,-1 6.93,0 a 48.68,48.68 0 0 0 7.47,1 65.76,65.76 0 0 0 5.55,-12 c 1.63,-5.4 0.71,-11 0.58,-13.85 -0.13,-2.85 -0.6,-5.91 -0.28,-6.42 0.32,-0.51 7,-48.8 7.36,-59.44 a 117.92,117.92 0 0 1 3.2,-21.39 c 0,0 3.19,14.86 3.44,20.6 0.25,5.74 -0.57,52.52 -0.16,62 0.41,9.48 -0.32,12 -1.4,14.36 -1.08,2.36 -0.69,3.54 0.07,5.4 0.76,1.86 3.15,10.13 3.15,10.13 0,0 12.19,0.68 13.84,-0.17 1.65,-0.85 2.29,-1.68 2.26,-2.19 -0.03,-0.51 5.87,-12.67 5.31,-17.73 -0.56,-5.06 -1.2,-4.22 -1.77,-13.34 -0.57,-9.12 3.16,-86 3.15,-90 -0.01,-4 -0.68,3.71 -25.54,-1 -24.86,-4.71 -29.02,-2.93 -29.73,0.28 z"
         style="fill:#92e3a9;stroke:#263238;stroke-linecap:round;stroke-linejoin:round"
         id="path653" />
      <path
         d="m 134.8,392 c 0,0 7.81,-6.76 14.32,-8.45"
         style="fill:#ffffff;stroke:#263238;stroke-linecap:round;stroke-linejoin:round"
         id="path655" />
      <path
         d="m 102.91,388.78 c 0,0 9.76,-4.73 12.58,-5.91"
         style="fill:#ffffff;stroke:#263238;stroke-linecap:round;stroke-linejoin:round"
         id="path657" />
      <path
         d="m 119.29,149.49 c 0,0 -2.62,-5.91 -4.56,-3.88 -1.94,2.03 -0.47,4.72 2.2,7.93 2.67,3.21 4.78,1.18 4.22,-0.17 -0.56,-1.35 -1.86,-3.88 -1.86,-3.88 z"
         style="fill:#ffffff;stroke:#263238;stroke-linecap:round;stroke-linejoin:round"
         id="path659" />
      <path
         d="m 144.65,146.28 c 0,0 2.62,-5.74 4.76,-3 2.14,2.74 -2.46,9.46 -3.59,10.64 -1.13,1.18 -1.86,-7.77 -1.86,-7.77 z"
         style="fill:#ffffff;stroke:#263238;stroke-linecap:round;stroke-linejoin:round"
         id="path661" />
      <path
         d="m 87.77,220.25 c 0,0 -0.73,10.47 -1.62,13.17 A 66,66 0 0 0 83.63,253 c 0.35,7.93 3.46,25.16 3.52,30.39 0.06,5.23 -1.57,6.42 0.18,7.77 1.75,1.35 5.47,5.41 6.82,5.41 1.35,0 3.41,0.67 3.36,-0.34 -0.05,-1.01 -0.71,-0.85 -1.28,-2.2 a 46.85,46.85 0 0 1 -1.78,-6.03 39.69,39.69 0 0 1 1.49,-4.39 c 0,0 1.2,4.22 1.43,5.58 0.23,1.36 2.11,1.85 2,-0.68 -0.11,-2.53 -0.16,-3.55 -0.28,-6.25 -0.12,-2.7 -2.25,-5.06 -3.15,-6.42 -0.9,-1.36 -1.61,-2.19 -1.64,-2.7 -0.03,-0.51 2.91,-18.4 3,-24.65 0.09,-6.25 0.18,-11.32 0.63,-12.5 0.45,-1.18 2.69,-11.82 2.69,-11.82 z"
         style="fill:#ffffff;stroke:#263238;stroke-linecap:round;stroke-linejoin:round"
         id="path663" />
      <path
         d="m 171.29,220.75 c 0,0 0.72,10.53 1.62,13.31 a 68.83,68.83 0 0 1 2.51,19.81 c -0.35,7.91 -3.48,24.86 -3.54,30.09 -0.06,5.23 1.58,6.55 -0.17,7.75 -1.75,1.2 -5.48,4.92 -6.83,4.81 -1.35,-0.11 -3.4,0.37 -3.36,-0.64 0.04,-1.01 0.71,-0.78 1.28,-2.08 a 42.75,42.75 0 0 0 1.79,-5.92 42.13,42.13 0 0 0 -1.5,-4.53 c 0,0 -1.2,4.12 -1.43,5.45 -0.23,1.33 -2.1,1.67 -2,-0.85 0.1,-2.52 0.15,-3.53 0.27,-6.22 0.12,-2.69 2.25,-4.87 3.16,-6.14 0.91,-1.27 1.61,-2.06 1.64,-2.56 0.03,-0.5 -2.91,-18.66 -3,-24.92 -0.09,-6.26 -0.17,-11.33 -0.63,-12.55 -0.46,-1.22 -2.69,-12.06 -2.69,-12.06 z"
         style="fill:#ffffff;stroke:#263238;stroke-linecap:round;stroke-linejoin:round"
         id="path665" />
      <path
         d="m 124.7,168.91 c 0,0 -9.6,4.56 -15.4,7.09 -5.8,2.53 -13.09,5.57 -13,6.76 0.09,1.19 -6.18,24.82 -8.16,29.72 -1.98,4.9 -3.83,8.78 -3.83,8.78 0,0 7.09,4.74 11.69,5.74 a 58,58 0 0 0 9,1.18 l -5.47,48.64 c 0,0 11,4.39 28.23,4.56 a 266.59,266.59 0 0 0 32,-1.69 c 0,0 1.62,-40 1.45,-43.91 a 35.53,35.53 0 0 1 0.23,-6.42 15.63,15.63 0 0 0 7.92,-0.33 69.06,69.06 0 0 0 6.63,-2.87 c 0,0 -8.39,-33.44 -9.77,-38 -1.38,-4.56 -0.74,-5.23 -1.94,-5.74 -1.2,-0.51 -14.46,-6.25 -18.79,-8.78 -4.33,-2.53 -6,-2.54 -9.79,-3.72 -3.79,-1.18 -9.05,-2.7 -11,-1.01 z"
         style="fill:#92e3a9;stroke:#263238;stroke-linecap:round;stroke-linejoin:round"
         id="path667" />
      <line
         x1="161.46001"
         y1="229.36"
         x2="159.32001"
         y2="199.37"
         style="fill:none;stroke:#263238;stroke-linecap:round;stroke-linejoin:round"
         id="line669" />
      <path
         d="m 105.4,245.07 18.73,-0.51 c 0,0 -0.83,23.48 -1.4,26 -0.57,2.52 -4.37,4.22 -9.28,4.05 -4.91,-0.17 -7.88,-2.53 -8.44,-3.71"
         style="fill:none;stroke:#263238;stroke-linecap:round;stroke-linejoin:round"
         id="path671" />
      <line
         x1="104.35"
         y1="248.11"
         x2="124.1"
         y2="247.94"
         style="fill:none;stroke:#263238;stroke-linecap:round;stroke-linejoin:round"
         id="line673" />
      <path
         d="m 156.35,274.62 c -1.84,0.51 -6.23,0.51 -7.19,-2.19 -0.96,-2.7 -0.33,-26.85 -0.33,-26.85 l 9.64,0.33"
         style="fill:none;stroke:#263238;stroke-linecap:round;stroke-linejoin:round"
         id="path675" />
      <line
         x1="148.75"
         y1="247.60001"
         x2="157.92"
         y2="248.95"
         style="fill:none;stroke:#263238;stroke-linecap:round;stroke-linejoin:round"
         id="line677" />
      <path
         d="m 105,228.18 c 0,0 0.68,-23.13 0.41,-29.21"
         style="fill:none;stroke:#263238;stroke-linecap:round;stroke-linejoin:round"
         id="path679" />
      <path
         d="m 121.84,157.59 c 0,0 1.46,14 1.52,15.54 0.06,1.54 1.77,5.74 3.39,7.94 1.62,2.2 6.15,9.29 7.95,7.93 1.8,-1.36 6.87,-8.95 7.36,-13.17 0.49,-4.22 0.73,-14.18 0.73,-14.18 0,0 -6.57,0.34 -11.55,-1.35 -4.98,-1.69 -9.4,-2.71 -9.4,-2.71 z"
         style="fill:#ffffff;stroke:#263238;stroke-linecap:round;stroke-linejoin:round"
         id="path681" />
      <path
         d="m 114.84,136.65 3.73,11.83 c 0,0 1.4,8.78 3.92,12.32 2.52,3.54 11.35,8.62 15.36,7.6 4.01,-1.02 8.74,-4.73 8.56,-8.78 -0.18,-4.05 -1,-15.87 -0.89,-20.43 0.11,-4.56 -1,-13.85 -3.76,-16.38 -2.76,-2.53 -12,-4.06 -18.63,-1.35 -6.63,2.71 -11.13,7.76 -8.29,15.19 z"
         style="fill:#263238;stroke:#263238;stroke-linecap:round;stroke-linejoin:round"
         id="path683" />
      <path
         d="m 118.78,149.49 c 0,0 -0.33,0.17 0.54,-3.21 0.87,-3.38 3.49,-5.07 3.75,-6.75 0.26,-1.68 -3.3,-2.2 -2.91,-4.73 0.39,-2.53 3.87,-4.39 11.26,-5.24 7.39,-0.85 12.31,3.55 12.07,5.74 -0.24,2.19 -0.9,2.54 0.18,4.06 1.08,1.52 1.54,4.39 1.62,6.08 0.08,1.69 1,7.76 -0.6,9.62 -1.6,1.86 -2.8,1.52 -4.39,0 -1.59,-1.52 -2.18,-3.54 -5.72,-3.54 -3.54,0 -4.67,1.35 -5.29,2.7 -0.62,1.35 -1.22,3 -3.24,3 -2.02,0 -3.46,-1.86 -4.9,-3.89 a 32.69,32.69 0 0 1 -2.37,-3.84 z"
         style="fill:#ffffff;stroke:#263238;stroke-linecap:round;stroke-linejoin:round"
         id="path685" />
      <path
         d="m 134,141.21 c 0,0 3.27,9.12 3.13,9.8 -0.14,0.68 -1.74,2.7 -3.61,2.53 -1.87,-0.17 -2.8,-2.36 -2.8,-2.36"
         style="fill:none;stroke:#263238;stroke-linecap:round;stroke-linejoin:round"
         id="path687" />
      <path
         d="m 134.92,140 a 2.11,2.11 0 0 1 1.91,-2.7 7.46,7.46 0 0 1 5.66,2.2"
         style="fill:none;stroke:#263238;stroke-width:2px;stroke-linecap:round;stroke-linejoin:round"
         id="path689" />
      <path
         d="m 130,139 a 4.06,4.06 0 0 0 -3.41,-0.68 c -2,0.51 -4.41,3.55 -4.38,4.06"
         style="fill:none;stroke:#263238;stroke-width:2px;stroke-linecap:round;stroke-linejoin:round"
         id="path691" />
      <path
         d="m 129.35,143.92 c 0,0.84 -0.35,1.52 -0.87,1.52 -0.52,0 -1,-0.68 -1,-1.52 0,-0.84 0.35,-1.52 0.86,-1.52 0.51,0 0.97,0.68 1.01,1.52 z"
         style="fill:#263238"
         id="path693" />
      <path
         d="m 139.12,143.41 c 0,0.84 -0.35,1.52 -0.86,1.52 -0.51,0 -1,-0.68 -1,-1.52 0,-0.84 0.35,-1.52 0.86,-1.52 0.51,0 0.96,0.68 1,1.52 z"
         style="fill:#263238"
         id="path695" />
      <path
         d="m 130.44,157.26 c 0,0 3.27,1.52 8.24,-0.68"
         style="fill:none;stroke:#ffffff;stroke-width:2px;stroke-linecap:round;stroke-linejoin:round"
         id="path697" />
      <path
         d="m 118.41,172 c 0,0 5,17.22 10.37,28.54 5.37,11.32 9.63,19.25 9.63,19.25 0,0 8.09,-27.19 8.05,-36 -0.04,-8.81 -0.09,-9.79 -0.09,-9.79"
         style="fill:none;stroke:#263238;stroke-linecap:round;stroke-linejoin:round"
         id="path699" />
      <polygon
         points="143.64,219.74 144.4,236.96 134.09,236.96 133.34,219.74 "
         style="fill:#ffffff;stroke:#263238;stroke-linecap:round;stroke-linejoin:round"
         id="polygon701" />
    </g>
    <g
       id="freepik--character-2--inject-29">
      <path
         d="m 220.14,403.81 c 0,0 5.4,4.39 9.28,5.57 3.88,1.18 5.91,1.86 5.07,3.72 -0.84,1.86 -3.55,2.53 -11.48,2.7 -7.93,0.17 -9.46,-1.52 -12.5,-2.37 -3.04,-0.85 -7.26,0 -8.61,-1.68 -1.35,-1.68 -0.85,-4.23 -0.85,-6.93 0,-2.7 11.66,-3.88 14.7,-2.87 a 22.21,22.21 0 0 1 4.39,1.86 z"
         style="fill:#ffffff;stroke:#263238;stroke-linecap:round;stroke-linejoin:round"
         id="path704" />
      <path
         d="m 204.77,407.19 c 0,0 5.07,5.4 9.29,7.76 4.22,2.36 6.58,4.06 5.57,5.24 -1.01,1.18 -4.22,2.7 -12.67,1.86 -8.45,-0.84 -10.13,-2.71 -14.18,-5.58 -4.05,-2.87 -5.91,-2.53 -7.26,-4.05 -1.35,-1.52 -1.35,-4.9 -1.35,-4.9 z"
         style="fill:#ffffff;stroke:#263238;stroke-linecap:round;stroke-linejoin:round"
         id="path706" />
      <path
         d="m 230.1,282.22 c 0,0 -3,40.19 -4.22,47.45 -1.22,7.26 -2.37,11.32 -2.2,16.38 0.17,5.06 1.69,19.59 -1.35,28.21 -3.04,8.62 -3,19.08 -2.7,22.12 0.3,3.04 1.35,7.09 1.18,7.77 -0.17,0.68 -5.06,3.37 -8.61,4.05 a 41,41 0 0 1 -6.76,0.67 45.46,45.46 0 0 1 -10.63,2.37 c -5.07,0.34 -12,-1.18 -12,-1.18 0,0 0,-12.5 -0.68,-20.61 -0.68,-8.11 -3,-21.1 -0.17,-30.9 2.83,-9.8 2.2,-15 2,-18.24 -0.2,-3.24 0,-17.73 -0.17,-18.24 -0.17,-0.51 -1.18,-42.72 -1.18,-42.72 0,0 18.4,2.7 30.73,1.52 12.33,-1.18 15.54,-1.18 15.54,-1.18 0,0 2.74,-3.04 1.22,2.53 z"
         style="fill:#263238;stroke:#263238;stroke-linecap:round;stroke-linejoin:round"
         id="path708" />
      <path
         d="m 206.29,406.51 a 34.34,34.34 0 0 0 -1,-8.11 c -1,-3.37 -1.19,-15.36 -0.68,-20.26 0.51,-4.9 3,-17.22 3,-24.15 0,-6.93 0.68,-17.56 0.68,-17.56"
         style="fill:none;stroke:#ffffff;stroke-linecap:round;stroke-linejoin:round"
         id="path710" />
      <path
         d="M 241.24,332.71 222,332.54 c -0.84,0 -0.84,-12.83 -0.84,-12.83 z"
         style="fill:#ffffff;stroke:#263238;stroke-linecap:round;stroke-linejoin:round"
         id="path712" />
      <path
         d="m 200.55,284.59 c 0,0 19.25,1.18 30.06,-0.68 l -3.72,-90.85 c 0,0 -2.53,-4.22 -9.29,-6.59 -6.76,-2.37 -14.86,1 -17.73,4.22 -2.87,3.22 -0.84,93.56 -0.84,93.56 z"
         style="fill:#92e3a9;stroke:#263238;stroke-linecap:round;stroke-linejoin:round"
         id="path714" />
      <path
         d="m 201.39,186.47 c 0,0 -19.08,9.63 -21.95,11.32 -2.87,1.69 -3,7.76 -3,10.64 0,2.88 0.84,130.7 0.84,130.7 a 64.87,64.87 0 0 0 21.45,-2.19 56,56 0 0 0 19.08,-9.12 L 214.6,259.09 211,198.8 c 0,0 -2.18,-16.72 -9.61,-12.33 z"
         style="fill:#ffffff;stroke:#263238;stroke-linecap:round;stroke-linejoin:round"
         id="path716" />
      <path
         d="m 207.13,180.22 c 0,0 -4.39,0.51 -6.25,3 a 14.44,14.44 0 0 0 -2.36,4.9 l -1.69,15.2 5.74,-1.35 -2.87,6.75 c 0,0 2.87,8.45 6.08,15.54 3.21,7.09 7.94,21.61 7.94,21.61 l -2.2,-45.42 c 0,0 0,-13.17 -1,-16 -1,-2.83 -2.04,-4.23 -3.39,-4.23 z"
         style="fill:#ffffff;stroke:#263238;stroke-linecap:round;stroke-linejoin:round"
         id="path718" />
      <path
         d="m 218.11,189.51 3.38,137.63 19.75,5.57 -2.87,-104.86 c 0,0 0.51,-27 -1.18,-30.74 -1.69,-3.74 -16.88,-11.31 -18.4,-11.11 -1.52,0.2 -0.68,3.51 -0.68,3.51 z"
         style="fill:#ffffff;stroke:#263238;stroke-linecap:round;stroke-linejoin:round"
         id="path720" />
      <path
         d="m 218.11,182.59 a 8.75,8.75 0 0 1 5.74,4.56 c 1.69,3.71 6.08,15.2 6.08,15.2 l -5.57,0.67 5.91,4.22 -10.47,39.35 -1.18,-42.59 -1,-17.56 c 0,0 -1.2,-2.84 0.49,-3.85 z"
         style="fill:#ffffff;stroke:#263238;stroke-linecap:round;stroke-linejoin:round"
         id="path722" />
      <path
         d="m 205.78,174.48 c 0,0 0.68,4.9 -0.34,7.6 -1.02,2.7 3.21,11.15 4.9,16.38 1.69,5.23 3.38,9.46 4.39,8.95 1.01,-0.51 4.56,-20.26 4.39,-22.8 -0.17,-2.54 1.52,-10.13 1.52,-10.13 0,0 -9.29,2.7 -14.86,0 z"
         style="fill:#ffffff;stroke:#263238;stroke-linecap:round;stroke-linejoin:round"
         id="path724" />
      <ellipse
         cx="193.92"
         cy="159.27"
         rx="9.6300001"
         ry="10.06"
         style="fill:#263238;stroke:#263238;stroke-linecap:round;stroke-linejoin:round"
         id="ellipse726" />
      <path
         d="m 198.86,164 c 0,0 -1.69,-4.39 -3.72,-2.7 -2.03,1.69 0,5.4 1.52,7.6 1.52,2.2 4.39,1.18 4.06,-1 a 8.48,8.48 0 0 0 -1.86,-3.9 z"
         style="fill:#ffffff;stroke:#263238;stroke-linecap:round;stroke-linejoin:round"
         id="path728" />
      <path
         d="m 225,161.27 c 0,0 0.85,-4.22 2,-1.35 a 7.79,7.79 0 0 1 -0.34,7.09 c -1,1.69 -0.84,1.52 -1.18,0 A 52.07,52.07 0 0 1 225,161.27 Z"
         style="fill:#ffffff;stroke:#263238;stroke-linecap:round;stroke-linejoin:round"
         id="path730" />
      <path
         d="m 196.49,155.87 c 0,0 3.21,15.53 5.24,19.25 2.03,3.72 8.78,10 14.86,7.43 6.08,-2.57 9.46,-7.26 9.46,-13 0,-5.74 0.84,-13 -0.17,-19.26 a 12.72,12.72 0 0 0 -12,-10.47 c -5.41,-0.17 -13.85,2.87 -15.54,8.28 a 39.73,39.73 0 0 0 -1.85,7.77 z"
         style="fill:#ffffff;stroke:#263238;stroke-linecap:round;stroke-linejoin:round"
         id="path732" />
      <path
         d="m 196.66,161.61 c 0,0 9.46,-3.72 15.54,-8.28 6.08,-4.56 7.94,-7.93 7.94,-7.93 0,0 2.87,7.76 4.05,10.3 1.18,2.54 2.19,5.4 2.19,5.4 0,0 1.86,-3.21 1.86,-10 0,-6.79 -1.86,-12.16 -9,-15.71 -7.14,-3.55 -18.74,-1.35 -24,3.72 -5.26,5.07 -4.22,13.34 -2.87,16.55 a 20.29,20.29 0 0 0 4.29,5.95 z"
         style="fill:#263238;stroke:#263238;stroke-linecap:round;stroke-linejoin:round"
         id="path734" />
      <path
         d="m 217.6,155.36 c 0,0 -1,0.17 -1,3.21 0,3.04 1,8.1 0.84,8.78 -0.16,0.68 -2,2.7 -3.2,1.52"
         style="fill:none;stroke:#263238;stroke-linecap:round;stroke-linejoin:round"
         id="path736" />
      <path
         d="m 210,171.91 c 0,0 4.39,1.86 10,-1.52"
         style="fill:none;stroke:#263238;stroke-linecap:round;stroke-linejoin:round"
         id="path738" />
      <path
         d="m 218.28,155 c 0,0 3.56,-1.36 5.91,0.68"
         style="fill:none;stroke:#263238;stroke-linecap:round;stroke-linejoin:round"
         id="path740" />
      <path
         d="m 212.37,155.7 a 10.2,10.2 0 0 0 -9.12,1.69"
         style="fill:none;stroke:#263238;stroke-linecap:round;stroke-linejoin:round"
         id="path742" />
      <path
         d="m 210,160.59 c 0,1 -0.41,1.86 -0.92,1.86 -0.51,0 -0.93,-0.83 -0.93,-1.86 0,-1.03 0.41,-1.85 0.93,-1.85 0.52,0 0.92,0.83 0.92,1.85 z"
         style="fill:#263238"
         id="path744" />
      <path
         d="m 221,159.92 c 0,1 -0.42,1.86 -0.93,1.86 -0.51,0 -0.93,-0.83 -0.93,-1.86 0,-1.03 0.42,-1.86 0.93,-1.86 0.51,0 0.93,0.83 0.93,1.86 z"
         style="fill:#263238"
         id="path746" />
      <path
         d="m 231.79,228.35 -3,-4.9 c -0.85,-1.35 -4.73,-0.84 -6.59,-0.84 a 6.29,6.29 0 0 0 -4.73,3 c -0.67,1.35 -3.71,3.55 -2.53,4.9 1.18,1.35 4.39,0.5 4.9,0.84 0.51,0.34 4.73,3.21 6.25,3.72 a 5.79,5.79 0 0 0 2.53,0.33 z"
         style="fill:none;stroke:#263238;stroke-linecap:round;stroke-linejoin:round"
         id="path748" />
      <path
         d="m 236.35,196.1 a 13.72,13.72 0 0 1 7.26,8.1 c 1.86,5.91 8.1,45.26 6.75,49 -1.35,3.74 -4.72,6.58 -10.63,4.56 -5.91,-2.02 -15,-11.66 -15,-11.66 l 7.09,-17.73 5.57,2.87 -1.18,-15.87"
         style="fill:#ffffff;stroke:#263238;stroke-linecap:round;stroke-linejoin:round"
         id="path750" />
      <path
         d="m 237.36,231.22 c 0,0 8.95,5.24 9.8,7.1"
         style="fill:none;stroke:#263238;stroke-linecap:round;stroke-linejoin:round"
         id="path752" />
      <rect
         x="193.45"
         y="207.58"
         width="32.59"
         height="45.599998"
         style="fill:#263238;stroke:#263238;stroke-linecap:round;stroke-linejoin:round"
         id="rect754" />
      <path
         d="m 208.15,239.33 c 0,0 6.24,-3.38 8.1,-5.24 1.86,-1.86 2.2,-2 3.21,-2 a 54.57,54.57 0 0 0 7.43,-0.51 c 1,-0.34 0.51,2 0,2.53 -0.51,0.53 -3.71,1.19 -3.71,1.19 0,0 5.4,-0.51 5.57,1.18 a 2.71,2.71 0 0 1 -0.85,2.7 l -0.5,0.51 c 0,0 0.5,3.54 0,5.23 -0.5,1.69 -1.52,2.2 -3.72,2.53 a 36.52,36.52 0 0 1 -8.78,-0.5 c -1.69,-0.34 -7.43,0.84 -7.43,0.84 z"
         style="fill:#ffffff;stroke:#263238;stroke-linecap:round;stroke-linejoin:round"
         id="path756" />
      <path
         d="m 185.69,194.75 c 0,0 -10,2.19 -11.66,3.2 -1.66,1.01 -7.26,41.21 -8.44,48 -1.18,6.79 10.47,8.11 14,9.46 3.53,1.35 29.41,3.34 29.41,3.34 l 0.34,-20.94 -17.9,-4.56 -0.17,-28.88"
         style="fill:#ffffff;stroke:#263238;stroke-linecap:round;stroke-linejoin:round"
         id="path758" />
      <path
         d="m 191.43,233.25 c 0,0 -6.25,-2.87 -10.3,-1.35 -4.05,1.52 -7.43,9.29 -7.43,9.29"
         style="fill:none;stroke:#263238;stroke-linecap:round;stroke-linejoin:round"
         id="path760" />
      <path
         d="m 184.5,231.22 c 0,0 -5.91,-0.34 -8.78,0.85 a 12.11,12.11 0 0 0 -4.56,3.37"
         style="fill:none;stroke:#263238;stroke-linecap:round;stroke-linejoin:round"
         id="path762" />
      <rect
         x="205.11"
         y="206.06"
         width="11.48"
         height="3.72"
         style="fill:#ffffff;stroke:#263238;stroke-linecap:round;stroke-linejoin:round"
         id="rect764" />
    </g>
  </g>
  <text
     xml:space="preserve"
     id="text2054"
     style="font-style:normal;font-variant:normal;font-weight:normal;font-stretch:normal;font-size:40px;line-height:1.25;font-family:Aharoni;-inkscape-font-specification:Aharoni;white-space:pre;shape-inside:url(#rect2056);fill:#000000;fill-opacity:1;stroke:none"
     transform="matrix(2.5941324,0,0,2.5941324,2157.9839,291.96046)"><tspan
       x="-1244.7031"
       y="-211.36914"
       id="tspan2278">Welcome</tspan></text>
</svg>
