<?xml version="1.0" encoding="UTF-8" standalone="no"?>
<svg
   viewBox="0 0 500 500"
   version="1.1"
   id="svg223"
   sodipodi:docname="Online Doctor-rafiki.svg"
   inkscape:version="1.2.1 (9c6d41e410, 2022-07-14)"
   xmlns:inkscape="http://www.inkscape.org/namespaces/inkscape"
   xmlns:sodipodi="http://sodipodi.sourceforge.net/DTD/sodipodi-0.dtd"
   xmlns="http://www.w3.org/2000/svg"
   xmlns:svg="http://www.w3.org/2000/svg">
  <defs
     id="defs227" />
  <sodipodi:namedview
     id="namedview225"
     pagecolor="#505050"
     bordercolor="#eeeeee"
     borderopacity="1"
     inkscape:showpageshadow="0"
     inkscape:pageopacity="0"
     inkscape:pagecheckerboard="0"
     inkscape:deskcolor="#505050"
     showgrid="false"
     inkscape:zoom="0.6675088"
     inkscape:cx="-618.71843"
     inkscape:cy="-25.467829"
     inkscape:window-width="1366"
     inkscape:window-height="705"
     inkscape:window-x="-8"
     inkscape:window-y="-8"
     inkscape:window-maximized="1"
     inkscape:current-layer="svg223" />
  <g
     id="g3713">
    <g
       id="freepik--background-complete--inject-2"
       transform="translate(-764.03486,-257.67451)">
      <rect
         y="382.39999"
         width="500"
         height="0.25"
         style="fill:#ebebeb"
         id="rect2"
         x="0" />
      <rect
         x="416.78"
         y="398.48999"
         width="33.119999"
         height="0.25"
         style="fill:#ebebeb"
         id="rect4" />
      <rect
         x="322.53"
         y="401.20999"
         width="8.6899996"
         height="0.25"
         style="fill:#ebebeb"
         id="rect6" />
      <rect
         x="368.10999"
         y="389.20999"
         width="47.669998"
         height="0.25"
         style="fill:#ebebeb"
         id="rect8" />
      <rect
         x="52.459999"
         y="390.89001"
         width="23.68"
         height="0.25"
         style="fill:#ebebeb"
         id="rect10" />
      <rect
         x="85.040001"
         y="390.89001"
         width="25.85"
         height="0.25"
         style="fill:#ebebeb"
         id="rect12" />
      <rect
         x="131.47"
         y="395.10999"
         width="64.639999"
         height="0.25"
         style="fill:#ebebeb"
         id="rect14" />
      <path
         d="M 237,337.8 H 43.91 a 5.71,5.71 0 0 1 -5.7,-5.71 V 60.66 A 5.71,5.71 0 0 1 43.91,55 H 237 a 5.71,5.71 0 0 1 5.71,5.71 V 332.09 A 5.71,5.71 0 0 1 237,337.8 Z M 43.91,55.2 a 5.46,5.46 0 0 0 -5.45,5.46 v 271.43 a 5.46,5.46 0 0 0 5.45,5.46 H 237 a 5.47,5.47 0 0 0 5.46,-5.46 V 60.66 A 5.47,5.47 0 0 0 237,55.2 Z"
         style="fill:#ebebeb"
         id="path16" />
      <path
         d="m 453.31,337.8 h -193.1 a 5.72,5.72 0 0 1 -5.71,-5.71 V 60.66 A 5.72,5.72 0 0 1 260.21,55 h 193.1 a 5.71,5.71 0 0 1 5.69,5.66 v 271.43 a 5.71,5.71 0 0 1 -5.69,5.71 z M 260.21,55.2 a 5.47,5.47 0 0 0 -5.46,5.46 v 271.43 a 5.47,5.47 0 0 0 5.46,5.46 h 193.1 a 5.47,5.47 0 0 0 5.46,-5.46 V 60.66 a 5.47,5.47 0 0 0 -5.46,-5.46 z"
         style="fill:#ebebeb"
         id="path18" />
      <rect
         x="283.44"
         y="81"
         width="157.97"
         height="301.39999"
         style="fill:#ebebeb"
         id="rect20" />
      <rect
         x="295.19"
         y="90.830002"
         width="134.47"
         height="291.57001"
         style="fill:#f5f5f5"
         id="rect22" />
      <rect
         x="343.53"
         y="115.01"
         width="37.810001"
         height="10.45"
         style="fill:#ffffff"
         id="rect24" />
      <path
         d="m 398.37,218.82 h 20.51 a 3.2,3.2 0 0 1 3.2,3.2 v 0 a 3.2,3.2 0 0 1 -3.2,3.2 h -20.51 a 3.2,3.2 0 0 1 -3.2,-3.2 v 0 a 3.2,3.2 0 0 1 3.2,-3.2 z"
         style="fill:#ffffff"
         id="path26" />
      <rect
         x="70.379997"
         y="113.07"
         width="105.06"
         height="84.669998"
         style="fill:#ebebeb"
         id="rect28" />
      <rect
         x="86.209999"
         y="108.52"
         width="73.389999"
         height="93.779999"
         transform="rotate(90,122.905,155.405)"
         style="fill:#fafafa"
         id="rect30" />
      <rect
         x="121.15"
         y="118.66"
         width="3.51"
         height="71.910004"
         transform="rotate(90,122.905,154.615)"
         style="fill:#e0e0e0"
         id="rect32" />
      <rect
         x="121.15"
         y="126.65"
         width="3.51"
         height="71.910004"
         transform="rotate(90,122.905,162.605)"
         style="fill:#e0e0e0"
         id="rect34" />
      <rect
         x="121.15"
         y="134.63"
         width="3.51"
         height="71.910004"
         transform="rotate(90,122.905,170.585)"
         style="fill:#e0e0e0"
         id="rect36" />
      <rect
         x="121.15"
         y="160.64999"
         width="3.51"
         height="35.849998"
         transform="rotate(90,122.905,178.575)"
         style="fill:#e0e0e0"
         id="rect38" />
      <path
         d="m 87,118.71 a 10.93,10.93 0 0 1 -11,10.93 10.82,10.82 0 0 1 -5.64,-1.57 v -15 h 15 a 10.93,10.93 0 0 1 1.64,5.64 z"
         style="fill:#ebebeb"
         id="path40" />
      <path
         d="m 175.44,113.07 v 15 a 10.93,10.93 0 0 1 -15,-15 z"
         style="fill:#ebebeb"
         id="path42" />
      <path
         d="m 87,192.11 a 10.87,10.87 0 0 1 -1.56,5.63 h -15 v -15 A 10.94,10.94 0 0 1 87,192.11 Z"
         style="fill:#ebebeb"
         id="path44" />
      <path
         d="m 175.44,182.73 v 15 h -15 a 10.78,10.78 0 0 1 -1.57,-5.63 10.95,10.95 0 0 1 16.58,-9.38 z"
         style="fill:#ebebeb"
         id="path46" />
      <circle
         cx="122.91"
         cy="136.58"
         r="9.3100004"
         transform="rotate(-80.78,122.9162,136.5865)"
         style="fill:#e0e0e0"
         id="circle48" />
      <rect
         x="52.459999"
         y="262.14999"
         width="207.88"
         height="7.48"
         style="fill:#ebebeb"
         id="rect50" />
      <rect
         x="191"
         y="269.63"
         width="67.540001"
         height="112.77"
         style="fill:#f5f5f5"
         id="rect52" />
      <rect
         x="55.029999"
         y="269.63"
         width="67.540001"
         height="112.77"
         style="fill:#f5f5f5"
         id="rect54" />
      <rect
         x="55.029999"
         y="269.63"
         width="2.3099999"
         height="112.77"
         style="fill:#ebebeb"
         id="rect56" />
      <rect
         x="191"
         y="269.63"
         width="2.3099999"
         height="112.77"
         style="fill:#ebebeb"
         id="rect58" />
      <polygon
         points="90.5,244.12 78.08,244.12 79.08,262.15 89.5,262.15 "
         style="fill:#f0f0f0"
         id="polygon60" />
      <rect
         x="133.44"
         y="254.33"
         width="64.889999"
         height="7.8200002"
         style="fill:#f0f0f0"
         id="rect62" />
      <rect
         x="168.42"
         y="255.25"
         width="29.92"
         height="5.9899998"
         style="fill:#fafafa"
         id="rect64" />
    </g>
    <g
       id="freepik--Shadow--inject-2"
       transform="translate(-764.03486,-257.67451)">
      <ellipse
         id="freepik--path--inject-2"
         cx="250"
         cy="416.23999"
         rx="193.89"
         ry="11.32"
         style="fill:#f5f5f5" />
    </g>
    <g
       id="freepik--cross-icon--inject-2"
       transform="translate(-764.03486,-257.67451)">
      <circle
         cx="340.70999"
         cy="314.54001"
         r="31.68"
         style="fill:#ffffff"
         id="circle69" />
      <path
         d="m 340.71,346.61 a 32.07,32.07 0 1 1 32.06,-32.07 32.1,32.1 0 0 1 -32.06,32.07 z m 0,-63.35 A 31.29,31.29 0 1 0 372,314.54 31.31,31.31 0 0 0 340.71,283.26 Z"
         style="fill:#407bff"
         id="path71" />
      <rect
         x="335.60999"
         y="296.57999"
         width="10.2"
         height="35.919998"
         style="fill:#407bff"
         id="rect73" />
      <rect
         x="335.60999"
         y="296.57999"
         width="10.2"
         height="35.919998"
         transform="rotate(90,340.705,314.545)"
         style="fill:#407bff"
         id="rect75" />
    </g>
    <g
       id="freepik--pulse-icon--inject-2"
       transform="translate(-764.03486,-257.67451)">
      <path
         d="m 126.11,75.07 -0.68,-0.73 a 30.75,30.75 0 0 1 16.81,-8.1 l 0.14,1 a 29.74,29.74 0 0 0 -16.27,7.83 z"
         style="fill:#407bff"
         id="path78" />
      <path
         d="m 118.71,86 -0.93,-0.36 a 30.77,30.77 0 0 1 4,-7.14 l 0.8,0.6 a 30.24,30.24 0 0 0 -3.87,6.9 z"
         style="fill:#407bff"
         id="path80" />
      <circle
         cx="146.61"
         cy="96.870003"
         r="27.440001"
         style="fill:#407bff"
         id="circle82" />
      <path
         d="m 163,84.51 a 11.46,11.46 0 0 0 -16.36,-0.15 11.45,11.45 0 0 0 -16.35,0.15 11.71,11.71 0 0 0 0.41,16.32 l 13,13 a 4.2,4.2 0 0 0 5.94,0 l 13,-13 A 11.71,11.71 0 0 0 163,84.51 Z"
         style="fill:#ffffff"
         id="path84" />
      <path
         d="m 146.61,108.86 v 0 a 1,1 0 0 1 -0.91,-0.67 l -5.79,-16.93 -2.42,7.08 a 1,1 0 0 1 -0.95,0.67 h -9.69 a 1,1 0 0 1 0,-2 h 9 l 3.14,-9.17 a 1,1 0 0 1 1.89,0 l 5.89,17.23 5.72,-13.47 a 1,1 0 0 1 0.86,-0.61 1,1 0 0 1 0.93,0.51 l 3.02,5.5 h 9.11 a 1,1 0 0 1 0,2 h -9.69 a 1,1 0 0 1 -0.88,-0.51 l -2.37,-4.24 -5.94,14 a 1,1 0 0 1 -0.92,0.61 z"
         style="fill:#407bff"
         id="path86" />
    </g>
    <g
       id="freepik--Character--inject-2"
       transform="translate(-764.03486,-257.67451)">
      <path
         d="M 298.86,381.2 H 194.49 A 12.26,12.26 0 0 1 182.13,368 L 199,118 a 14.44,14.44 0 0 1 14.15,-13.25 H 317.54 A 12.26,12.26 0 0 1 329.9,118 L 313,368 a 14.43,14.43 0 0 1 -14.14,13.2 z"
         style="fill:#263238"
         id="path89" />
      <path
         d="m 322,206.56 h -2.63 a 3.42,3.42 0 0 1 -3.45,-3.7 l 3.23,-47.79 a 4,4 0 0 1 3.95,-3.7 h 2.63 a 3.42,3.42 0 0 1 3.45,3.7 l -3.23,47.79 a 4,4 0 0 1 -3.95,3.7 z"
         style="fill:#263238"
         id="path91" />
      <path
         d="m 197.48,174.68 h -2.62 a 2.8,2.8 0 0 1 -2.83,-3 l 1.17,-17.26 a 3.3,3.3 0 0 1 3.23,-3 h 2.63 a 2.81,2.81 0 0 1 2.82,3 l -1.17,17.26 a 3.29,3.29 0 0 1 -3.23,3 z"
         style="fill:#407bff"
         id="path93" />
      <path
         d="m 195.4,205.5 h -2.63 a 2.8,2.8 0 0 1 -2.82,-3 l 1.17,-17.26 a 3.3,3.3 0 0 1 3.23,-3 H 197 a 2.81,2.81 0 0 1 2.82,3 l -1.17,17.26 a 3.29,3.29 0 0 1 -3.25,3 z"
         style="fill:#407bff"
         id="path95" />
      <path
         d="M 296.65,381.2 H 192.28 A 12.26,12.26 0 0 1 179.92,368 L 196.8,118 A 14.44,14.44 0 0 1 211,104.79 H 315.33 A 12.26,12.26 0 0 1 327.69,118 L 310.8,368 a 14.43,14.43 0 0 1 -14.15,13.2 z"
         style="fill:#407bff"
         id="path97" />
      <polygon
         points="181.02,365.2 197.5,121.24 326.56,121.24 310.08,365.2 "
         style="opacity:0.3;fill:#ffffff"
         id="polygon99" />
      <polygon
         points="231.97,365.2 278.03,121.24 306.94,121.24 260.88,365.2 "
         style="opacity:0.1;fill:#ffffff"
         id="polygon101" />
      <polygon
         points="210.13,365.2 256.19,121.24 270.84,121.24 224.78,365.2 "
         style="opacity:0.1;fill:#ffffff"
         id="polygon103" />
      <path
         d="m 250.14,110.92 h 25.17 a 1.5,1.5 0 0 1 1.52,1.63 v 0 a 1.78,1.78 0 0 1 -1.74,1.64 h -25.17 a 1.51,1.51 0 0 1 -1.52,-1.64 v 0 a 1.77,1.77 0 0 1 1.74,-1.63 z"
         style="fill:#ffffff"
         id="path105" />
      <polygon
         points="244.9,405.25 236.08,406.09 232.9,385.74 241.72,384.89 "
         style="fill:#ffb573"
         id="polygon107" />
      <path
         d="m 235.07,401.78 9.24,-2.87 a 0.65,0.65 0 0 1 0.82,0.38 l 3,7.33 a 1.52,1.52 0 0 1 -1,2 c -3.34,1 -6.52,1.23 -10.55,3 -4.71,2 -6.68,4.68 -11.75,4.68 -3.63,0 -4.45,-3.33 -2.91,-3.79 7,-2.12 6.08,-3.86 11.16,-9.33 a 4.68,4.68 0 0 1 1.99,-1.4 z"
         style="fill:#263238"
         id="path109" />
      <polygon
         points="232.9,385.74 234.54,396.24 243.37,395.39 241.73,384.89 "
         style="opacity:0.2"
         id="polygon111" />
      <path
         d="m 239.28,128.6 c -11.57,-1.36 -23.08,-0.45 -34.63,1.79 a 9.23,9.23 0 0 0 -7.41,8 c -1.25,11.06 -2.68,35.85 2.9,72.83 l 47.28,-4 c 0.09,-6.71 -4.68,-37.28 -0.74,-69 a 8.47,8.47 0 0 0 -7.4,-9.62 z"
         style="fill:#ffffff"
         id="path113" />
      <path
         d="m 211.75,138.08 1.69,3.38 a 1,1 0 0 0 0.89,0.58 l 1.83,0.1 a 1.42,1.42 0 0 0 0.91,-0.28 l 3.15,-2.35 -3.89,-2.83 z"
         style="fill:#263238"
         id="path115" />
      <path
         d="M 216.22,141.17 A 3.08,3.08 0 0 0 214.09,141 c -1.49,5.25 -3.12,20.32 -3.29,27 4.52,13.17 6,14.5 6,14.5 l 2.29,-15.85 c 0,0 -2.57,-16.21 -2.87,-25.48 z"
         style="fill:#263238"
         id="path117" />
      <path
         d="m 229.27,105.8 c -1.08,6.52 -2,18.43 2.68,22.64 -3.43,3.6 -7.92,7.77 -15.62,8.24 -7.7,0.47 -6.51,-4.86 -4.56,-7.71 7.19,-1.92 6.84,-7.28 5.43,-12.29 z"
         style="fill:#ffb573"
         id="path119" />
      <path
         d="m 233.91,127.87 a 9.6,9.6 0 0 0 -1.69,-0.55 0.67,0.67 0 0 0 -0.75,0.31 c -0.74,1.26 -3,6.89 -15.14,9.05 2,1.18 4.65,4.84 5.79,6.6 3.64,-1.89 13.11,-7.54 12.21,-14.85 a 0.74,0.74 0 0 0 -0.42,-0.56 z"
         style="fill:#f5f5f5"
         id="path121" />
      <path
         d="m 211.84,129.27 a 0.7,0.7 0 0 0 -0.82,-0.84 9.39,9.39 0 0 0 -1.24,0.33 1,1 0 0 0 -0.26,0.15 c -0.93,0.86 -6,8.18 -1.25,14.1 1,-1.61 4.45,-5.26 8.06,-6.33 -3.42,-1.54 -5.1,-4.41 -4.49,-7.41 z"
         style="fill:#f5f5f5"
         id="path123" />
      <path
         d="m 224.35,110.24 -7.14,6.44 a 20.62,20.62 0 0 1 0.72,3.56 c 2.76,-0.47 6.47,-3.6 6.67,-6.5 a 9.48,9.48 0 0 0 -0.25,-3.5 z"
         style="opacity:0.2"
         id="path125" />
      <path
         d="m 214.81,86.09 c -6.16,2.41 -6.56,7.47 -6,13 0.56,5.53 6.58,1.87 7.92,-1.59 1.34,-3.46 6.61,-14.75 -1.92,-11.41 z"
         style="fill:#263238"
         id="path127" />
      <path
         d="m 234.46,97.12 c -1.71,8.71 -2.28,13.88 -7.26,17.89 -7.51,6 -17.68,0.82 -18.58,-8.16 -0.81,-8.09 2.12,-21 11.09,-23.52 a 11.72,11.72 0 0 1 14.75,13.79 z"
         style="fill:#ffb573"
         id="path129" />
      <path
         d="m 234.1,104.33 c -7.33,0.39 -5.78,-3.77 -4.45,-6.16 1.33,-2.39 -1.38,-6.34 0.39,-8.39 -3.16,1.26 -6.49,0.22 -10.72,-2.72 -3.28,-2.29 -7.39,6.86 -11.39,2.27 -3.78,-4.33 -0.27,-10.86 8.81,-11.91 9.08,-1.05 10.73,5.37 16.69,4.8 5.96,-0.57 3.89,4.34 2.72,5.34 5,0.33 7.73,5.11 -2.05,16.77 z"
         style="fill:#263238"
         id="path131" />
      <path
         d="m 235,88.17 a 7.34,7.34 0 0 0 3.81,-6.39 c 1.98,3.47 1.77,7.41 -3.81,6.39 z"
         style="fill:#263238"
         id="path133" />
      <path
         d="m 216,106.42 a 6,6 0 0 0 4.58,-1.08 0.2,0.2 0 0 0 0,-0.29 0.21,0.21 0 0 0 -0.29,0 5.77,5.77 0 0 1 -5.09,0.79 0.23,0.23 0 0 0 -0.27,0.14 0.21,0.21 0 0 0 0.14,0.26 5.29,5.29 0 0 0 0.93,0.18 z"
         style="fill:#263238"
         id="path135" />
      <path
         d="m 236.23,107 a 8.52,8.52 0 0 1 -5.59,3.22 c -2.91,0.38 -3.88,-2.33 -2.66,-4.86 1.11,-2.28 4,-5.22 6.68,-4.43 2.68,0.79 3.25,3.87 1.57,6.07 z"
         style="fill:#ffb573"
         id="path137" />
      <path
         d="m 233.34,296.37 c 0.35,-26.11 3.69,-88.3 3.69,-88.3 l -36.86,3.11 c 0,0 7.33,64.09 11.75,90.73 4.6,27.69 18.71,92.56 18.71,92.56 l 15,-1.28 c 0,0 -5.48,-76.63 -12.29,-96.82 z"
         style="fill:#263238"
         id="path139" />
      <polygon
         points="229.73,394.88 247.52,393.37 246.82,387.63 228.28,388.87 "
         style="fill:#407bff"
         id="polygon141" />
      <path
         d="m 221.32,97.64 c -0.09,0.71 -0.55,1.25 -1,1.2 -0.45,-0.05 -0.76,-0.67 -0.66,-1.39 0.1,-0.72 0.55,-1.25 1,-1.2 0.45,0.05 0.76,0.68 0.66,1.39 z"
         style="fill:#263238"
         id="path143" />
      <path
         d="m 213.16,97 c -0.09,0.72 -0.55,1.25 -1,1.2 -0.45,-0.05 -0.76,-0.67 -0.66,-1.38 0.1,-0.71 0.55,-1.25 1,-1.2 0.45,0.05 0.76,0.63 0.66,1.38 z"
         style="fill:#263238"
         id="path145" />
      <path
         d="m 215.46,97.84 a 24.82,24.82 0 0 1 -4.3,5 c 1.06,1.11 3.25,0.81 3.25,0.81 z"
         style="fill:#ed893e"
         id="path147" />
      <path
         d="m 208,97.18 c -0.15,1.14 1,2.09 2.59,2.29 1.59,0.2 3.06,-0.67 3.2,-1.81"
         style="opacity:0.4;fill:#407bff"
         id="path149" />
      <path
         d="m 217.45,98.24 c -0.22,1.13 0.89,2.15 2.45,2.45 1.56,0.3 3.09,-0.5 3.3,-1.62"
         style="opacity:0.4;fill:#407bff"
         id="path151" />
      <path
         d="m 220.52,101 a 4.89,4.89 0 0 1 -0.54,0 3.8,3.8 0 0 1 -2.07,-0.93 2.08,2.08 0 0 1 -0.72,-1.77 5,5 0 0 0 -1.6,-0.4 3.49,3.49 0 0 0 -1.69,0 c -0.14,1.22 -1.66,2.06 -3.36,1.85 a 3.72,3.72 0 0 1 -2.07,-0.92 2.1,2.1 0 0 1 -0.72,-1.77 l 0.48,0.06 a 1.61,1.61 0 0 0 0.57,1.36 3.24,3.24 0 0 0 1.8,0.79 c 1.44,0.19 2.72,-0.48 2.85,-1.48 0.07,-0.56 1.23,-0.52 2.19,-0.4 0.96,0.12 2.1,0.39 2,0.94 a 1.6,1.6 0 0 0 0.57,1.36 3.44,3.44 0 0 0 3.75,0.48 1.6,1.6 0 0 0 0.9,-1.17 v -0.24 l 12.34,1.59 -0.06,0.48 -11.88,-1.53 a 2.15,2.15 0 0 1 -1.1,1.29 3.53,3.53 0 0 1 -1.64,0.41 z"
         style="fill:#263238"
         id="path153" />
      <path
         d="m 224.46,94.5 a 0.36,0.36 0 0 0 0.2,-0.06 0.43,0.43 0 0 0 0.16,-0.58 4,4 0 0 0 -3.14,-2.1 0.43,0.43 0 0 0 -0.45,0.4 0.42,0.42 0 0 0 0.39,0.44 v 0 a 3.21,3.21 0 0 1 2.47,1.7 0.41,0.41 0 0 0 0.37,0.2 z"
         style="fill:#263238"
         id="path155" />
      <path
         d="m 210.52,93.37 a 0.43,0.43 0 0 0 0.37,-0.15 3.41,3.41 0 0 1 2.76,-1.34 0.42,0.42 0 0 0 0.46,-0.38 0.41,0.41 0 0 0 -0.36,-0.46 4.3,4.3 0 0 0 -3.5,1.65 0.42,0.42 0 0 0 0.05,0.59 0.51,0.51 0 0 0 0.22,0.09 z"
         style="fill:#263238"
         id="path157" />
      <path
         d="m 264.05,292.16 c -7.65,-39.32 -9.37,-70.07 -16.63,-85 l -35.71,4 c 0,0 21.27,58.59 31.66,83.6 10.79,26 32.09,70.42 32.09,70.42 h 17.84 c 0,0 -16.65,-55.11 -29.25,-73.02 z"
         style="fill:#263238"
         id="path159" />
      <path
         d="M 150.86,143.31 147,140.87 a 3.22,3.22 0 0 0 -4.06,0.47 l -2.62,2.76 a 3,3 0 0 0 0.26,4.37 l 1.87,1.6 a 15.25,15.25 0 0 0 5.57,3 l 5.65,1.67 3.71,-4 c 1.13,-4.17 -6.52,-7.43 -6.52,-7.43 z"
         style="fill:#ffb573"
         id="path161" />
      <path
         d="m 208,141.44 c -1.4,3.42 -2.77,6.6 -4.26,9.85 -1.49,3.25 -3,6.46 -4.67,9.65 -1.67,3.19 -3.45,6.36 -5.47,9.54 -1,1.58 -2.11,3.16 -3.37,4.75 a 30.34,30.34 0 0 1 -4.6,4.77 16.51,16.51 0 0 1 -3.69,2.28 c -0.42,0.16 -0.81,0.32 -1.27,0.46 l -0.7,0.19 a 8.35,8.35 0 0 1 -1.07,0.19 10,10 0 0 1 -3.64,-0.26 14.82,14.82 0 0 1 -4.18,-1.91 24,24 0 0 1 -2.75,-2 65.72,65.72 0 0 1 -7.95,-8.27 c -2.33,-2.8 -4.53,-5.61 -6.64,-8.48 -2.11,-2.87 -4.14,-5.69 -6.22,-8.7 l 11.06,-7.14 a 149.17,149.17 0 0 0 11.56,16.15 54.44,54.44 0 0 0 6.37,6.59 12.56,12.56 0 0 0 1.41,1 c 0.37,0.25 0.74,0.35 0.48,0.26 a 2.56,2.56 0 0 0 -1.08,-0.06 2.38,2.38 0 0 0 -0.43,0.08 h -0.08 c -0.05,0 -0.05,0 -0.06,0 a 6.05,6.05 0 0 0 0.65,-0.49 18.45,18.45 0 0 0 2.47,-2.74 c 0.85,-1.14 1.7,-2.42 2.51,-3.75 a 91.72,91.72 0 0 0 4.52,-8.54 c 1.4,-3 2.75,-6 4,-9.12 1.25,-3.12 2.44,-6.29 3.45,-9.32 z"
         style="fill:#407bff"
         id="path163" />
      <g
         style="opacity:0.6"
         id="g167">
        <path
           d="m 208,141.44 c -1.4,3.42 -2.77,6.6 -4.26,9.85 -1.49,3.25 -3,6.46 -4.67,9.65 -1.67,3.19 -3.45,6.36 -5.47,9.54 -1,1.58 -2.11,3.16 -3.37,4.75 a 30.34,30.34 0 0 1 -4.6,4.77 16.51,16.51 0 0 1 -3.69,2.28 c -0.42,0.16 -0.81,0.32 -1.27,0.46 l -0.7,0.19 a 8.35,8.35 0 0 1 -1.07,0.19 10,10 0 0 1 -3.64,-0.26 14.82,14.82 0 0 1 -4.18,-1.91 24,24 0 0 1 -2.75,-2 65.72,65.72 0 0 1 -7.95,-8.27 c -2.33,-2.8 -4.53,-5.61 -6.64,-8.48 -2.11,-2.87 -4.14,-5.69 -6.22,-8.7 l 11.06,-7.14 a 149.17,149.17 0 0 0 11.56,16.15 54.44,54.44 0 0 0 6.37,6.59 12.56,12.56 0 0 0 1.41,1 c 0.37,0.25 0.74,0.35 0.48,0.26 a 2.56,2.56 0 0 0 -1.08,-0.06 2.38,2.38 0 0 0 -0.43,0.08 h -0.08 c -0.05,0 -0.05,0 -0.06,0 a 6.05,6.05 0 0 0 0.65,-0.49 18.45,18.45 0 0 0 2.47,-2.74 c 0.85,-1.14 1.7,-2.42 2.51,-3.75 a 91.72,91.72 0 0 0 4.52,-8.54 c 1.4,-3 2.75,-6 4,-9.12 1.25,-3.12 2.44,-6.29 3.45,-9.32 z"
           style="fill:#ffffff"
           id="path165" />
      </g>
      <path
         d="m 234.18,126.09 c -3.75,7 -17.1,33.67 -18.72,50.13 -5.91,-15 -4.62,-48.18 -4.62,-48.18 a 44.43,44.43 0 0 0 -12.27,3 7.41,7.41 0 0 0 -4.57,6.26 262.07,262.07 0 0 0 1.62,51.47 c 4.15,32.3 8,82.53 8,82.53 0,0 33.05,-1.38 58.55,-6.76 -3.11,-24.69 -13.75,-66.07 -13.85,-77.15 -0.12,-14.26 0.21,-42.14 0.66,-53.78 a 6.89,6.89 0 0 0 -5.52,-7.07 34.57,34.57 0 0 0 -9.28,-0.45 z"
         style="fill:#407bff"
         id="path169" />
      <path
         d="m 234.18,126.09 c -3.75,7 -17.1,33.67 -18.72,50.13 -5.91,-15 -4.62,-48.18 -4.62,-48.18 a 44.43,44.43 0 0 0 -12.27,3 7.41,7.41 0 0 0 -4.57,6.26 262.07,262.07 0 0 0 1.62,51.47 c 4.15,32.3 8,82.53 8,82.53 0,0 33.05,-1.38 58.55,-6.76 -3.11,-24.69 -13.75,-66.07 -13.85,-77.15 -0.12,-14.26 0.21,-42.15 0.66,-53.79 a 6.78,6.78 0 0 0 -5.21,-7 34.31,34.31 0 0 0 -9.59,-0.51 z"
         style="opacity:0.7;fill:#ffffff"
         id="path171" />
      <path
         d="M 226.39,265.94 C 220.65,234.27 216.1,187.8 215.73,182.21 h 0.51 c 0.37,5.59 4.93,52 10.66,83.67 z"
         style="fill:#ffffff"
         id="path173" />
      <path
         d="m 223.53,209.6 h -30.48 a 2.85,2.85 0 0 1 -2.64,-2.17 l -10.19,-47.37 a 1.7,1.7 0 0 1 1.7,-2.17 h 30.47 a 2.85,2.85 0 0 1 2.65,2.17 l 10.19,47.37 a 1.7,1.7 0 0 1 -1.7,2.17 z"
         style="fill:#ffffff"
         id="path175" />
      <path
         d="m 222.58,210 h -31 a 2.91,2.91 0 0 1 -2.69,-2.21 l -10.37,-48.17 a 1.74,1.74 0 0 1 1.74,-2.21 h 31 a 2.91,2.91 0 0 1 2.69,2.21 l 10.36,48.17 a 1.73,1.73 0 0 1 -1.73,2.21 z"
         style="fill:#407bff"
         id="path177" />
      <path
         d="m 226.13,182.82 -7.71,-0.29 a 6.61,6.61 0 0 0 -2.71,0.48 l -4,1.6 a 3,3 0 0 0 -1.64,4 l 1.6,3.46 a 3.24,3.24 0 0 0 3.7,1.74 l 4.41,-1.1 c 0,0 8.28,-0.66 8.58,-5 z"
         style="fill:#ffb573"
         id="path179" />
      <path
         d="m 247.42,130.38 c 1.91,3 3.66,5.74 5.38,8.68 1.72,2.94 3.41,5.85 5,8.89 1.59,3.04 3.1,6.18 4.47,9.54 a 48.59,48.59 0 0 1 1.82,5.39 22.59,22.59 0 0 1 0.88,6.87 v 0.39 a 1.92,1.92 0 0 1 0,0.2 c 0,0.36 -0.1,0.72 -0.17,1.08 -0.07,0.36 -0.16,0.64 -0.26,1 -0.1,0.36 -0.21,0.55 -0.32,0.83 a 11.17,11.17 0 0 1 -1.46,2.42 17.45,17.45 0 0 1 -2.77,2.76 36.41,36.41 0 0 1 -5,3.31 95.27,95.27 0 0 1 -9.52,4.54 c -3.15,1.34 -6.29,2.56 -9.45,3.71 -3.16,1.15 -6.27,2.26 -9.56,3.36 l -3.81,-12.6 c 3,-0.82 6.06,-1.83 9.05,-2.85 2.99,-1.02 6,-2.16 8.84,-3.35 a 77.92,77.92 0 0 0 8.14,-3.93 23.49,23.49 0 0 0 3.17,-2.11 3.81,3.81 0 0 0 0.7,-0.69 1.07,1.07 0 0 0 -0.2,0.33 c 0,0.09 -0.05,0.15 -0.1,0.26 a 2.37,2.37 0 0 0 -0.09,0.36 2.43,2.43 0 0 0 -0.08,0.47 c 0,0.06 0,0.07 0,0.05 v -0.07 a 11.76,11.76 0 0 0 -0.55,-2.79 36.08,36.08 0 0 0 -1.42,-3.85 78.1,78.1 0 0 0 -4.14,-8.07 c -1.56,-2.68 -3.22,-5.36 -5,-8 -1.78,-2.64 -3.6,-5.27 -5.43,-7.67 z"
         style="fill:#407bff"
         id="path181" />
      <g
         style="opacity:0.7"
         id="g185">
        <path
           d="m 247.42,130.38 c 1.91,3 3.66,5.74 5.38,8.68 1.72,2.94 3.41,5.85 5,8.89 1.59,3.04 3.1,6.18 4.47,9.54 a 48.59,48.59 0 0 1 1.82,5.39 22.59,22.59 0 0 1 0.88,6.87 v 0.39 a 1.92,1.92 0 0 1 0,0.2 c 0,0.36 -0.1,0.72 -0.17,1.08 -0.07,0.36 -0.16,0.64 -0.26,1 -0.1,0.36 -0.21,0.55 -0.32,0.83 a 11.17,11.17 0 0 1 -1.46,2.42 17.45,17.45 0 0 1 -2.77,2.76 36.41,36.41 0 0 1 -5,3.31 95.27,95.27 0 0 1 -9.52,4.54 c -3.15,1.34 -6.29,2.56 -9.45,3.71 -3.16,1.15 -6.27,2.26 -9.56,3.36 l -3.81,-12.6 c 3,-0.82 6.06,-1.83 9.05,-2.85 2.99,-1.02 6,-2.16 8.84,-3.35 a 77.92,77.92 0 0 0 8.14,-3.93 23.49,23.49 0 0 0 3.17,-2.11 3.81,3.81 0 0 0 0.7,-0.69 1.07,1.07 0 0 0 -0.2,0.33 c 0,0.09 -0.05,0.15 -0.1,0.26 a 2.37,2.37 0 0 0 -0.09,0.36 2.43,2.43 0 0 0 -0.08,0.47 c 0,0.06 0,0.07 0,0.05 v -0.07 a 11.76,11.76 0 0 0 -0.55,-2.79 36.08,36.08 0 0 0 -1.42,-3.85 78.1,78.1 0 0 0 -4.14,-8.07 c -1.56,-2.68 -3.22,-5.36 -5,-8 -1.78,-2.64 -3.6,-5.27 -5.43,-7.67 z"
           style="fill:#ffffff"
           id="path183" />
      </g>
      <path
         d="m 237.3,165.08 a 0.39,0.39 0 0 1 -0.33,-0.19 0.39,0.39 0 0 1 0.12,-0.55 l 1.56,-1 a 8.5,8.5 0 0 0 3.8,-8.86 l -3.14,-15.9 a 5.38,5.38 0 0 0 -10.46,-0.44 l -4.45,15.59 a 8.47,8.47 0 0 0 3,9.14 l 1.48,1.12 a 0.4,0.4 0 0 1 0.07,0.56 0.39,0.39 0 0 1 -0.55,0.07 l -1.4,-1.11 a 9.28,9.28 0 0 1 -3.33,-10 l 4.46,-15.59 a 6.18,6.18 0 0 1 12,0.5 l 3.14,15.91 a 9.28,9.28 0 0 1 -4.15,9.68 l -1.57,1 a 0.33,0.33 0 0 1 -0.25,0.07 z"
         style="fill:#263238"
         id="path187" />
      <path
         d="m 239.7,138.91 v 0 l -11.23,-0.47 a 0.4,0.4 0 0 1 -0.38,-0.42 0.42,0.42 0 0 1 0.42,-0.38 l 11.22,0.47 a 0.4,0.4 0 0 1 0.38,0.42 0.39,0.39 0 0 1 -0.41,0.38 z"
         style="fill:#263238"
         id="path189" />
      <path
         d="m 234.24,134.25 a 0.41,0.41 0 0 1 -0.4,-0.39 c 0,-2 -0.62,-5.47 -2.49,-6.23 a 0.4,0.4 0 1 1 0.3,-0.74 c 2.77,1.14 3,6.36 3,7 a 0.41,0.41 0 0 1 -0.39,0.41 z"
         style="fill:#263238"
         id="path191" />
      <path
         d="m 199.89,147.84 h -0.08 a 0.4,0.4 0 0 1 -0.31,-0.47 c 1.32,-6.57 6.78,-16.94 11.59,-20 a 0.39,0.39 0 0 1 0.54,0.13 0.38,0.38 0 0 1 -0.12,0.54 c -4.65,2.94 -9.95,13 -11.23,19.47 a 0.4,0.4 0 0 1 -0.39,0.33 z"
         style="fill:#263238"
         id="path193" />
      <path
         d="m 203.17,148.87 c -0.62,1.59 -2,2.55 -3,2.14 -1,-0.41 -1.39,-2 -0.77,-3.63 0.62,-1.63 2,-2.55 3,-2.13 1,0.42 1.4,2.03 0.77,3.62 z"
         style="fill:#ffffff"
         id="path195" />
      <path
         d="m 229.57,164.36 c 0,0.74 -0.46,1.33 -0.95,1.31 -0.49,-0.02 -0.87,-0.64 -0.84,-1.39 0.03,-0.75 0.46,-1.34 0.95,-1.31 0.49,0.03 0.87,0.64 0.84,1.39 z"
         style="fill:#ffffff"
         id="path197" />
      <path
         d="m 238.19,164.72 c 0,0.74 -0.45,1.33 -0.95,1.31 -0.5,-0.02 -0.86,-0.64 -0.83,-1.39 0.03,-0.75 0.45,-1.33 1,-1.31 0.55,0.02 0.81,0.67 0.78,1.39 z"
         style="fill:#ffffff"
         id="path199" />
    </g>
    <g
       id="freepik--Chat--inject-2"
       transform="translate(-764.03486,-257.67451)">
      <path
         d="m 407.77,150.85 -1,-0.06 a 15.41,15.41 0 0 0 -15.49,-16.61 v -1 a 16.4,16.4 0 0 1 16.49,17.67 z"
         style="fill:#407bff"
         id="path202" />
      <rect
         x="402.54001"
         y="159.03999"
         width="8.2799997"
         height="1"
         transform="matrix(0.07,-1,1,0.07,220.5,554.73)"
         style="fill:#407bff"
         id="rect204" />
      <path
         d="m 391.28,136.68 h -69 a 15.18,15.18 0 0 0 -14.88,13.94 l -0.63,9.29 a 12.91,12.91 0 0 0 13,13.94 h 69 l 13.38,8.25 2.12,-31.48 a 12.9,12.9 0 0 0 -12.99,-13.94 z"
         style="fill:#407bff"
         id="path206" />
      <rect
         x="323.87"
         y="149.99001"
         width="63.91"
         height="2.3199999"
         style="fill:#ffffff"
         id="rect208" />
      <rect
         x="339.76999"
         y="158.22"
         width="47.450001"
         height="2.3199999"
         style="fill:#ffffff"
         id="rect210" />
      <path
         d="M 287.48,186.38 H 358 a 13.19,13.19 0 0 1 13.29,14.25 l -0.64,9.5 a 15.53,15.53 0 0 1 -15.21,14.25 h -70.53 l -14.82,8.45 2.18,-32.2 a 15.52,15.52 0 0 1 15.21,-14.25 z"
         style="fill:#ffffff"
         id="path212" />
      <path
         d="M 287.48,186.38 H 358 a 13.19,13.19 0 0 1 13.29,14.25 l -0.64,9.5 a 15.53,15.53 0 0 1 -15.21,14.25 h -70.53 l -14.82,8.45 2.18,-32.2 a 15.52,15.52 0 0 1 15.21,-14.25 z"
         style="opacity:0.15;fill:#407bff"
         id="path214" />
      <rect
         x="289.06"
         y="199.99001"
         width="65.360001"
         height="2.3800001"
         style="opacity:0.5;fill:#407bff"
         id="rect216" />
      <rect
         x="288.48999"
         y="208.39999"
         width="25.83"
         height="2.3800001"
         style="opacity:0.5;fill:#407bff"
         id="rect218" />
      <rect
         x="320.64999"
         y="208.39999"
         width="16.5"
         height="2.3800001"
         style="opacity:0.5;fill:#407bff"
         id="rect220" />
    </g>
  </g>
</svg>
