<svg
    xmlns="http://www.w3.org/2000/svg"
    width="480"
    height="480"
    viewBox="0 0 480 480"
>
    <g fill="#39c6b4">
        <polygon points="331.760009765625,259.06500244140625 259.760009765625,259.06500244140625 259.760009765625,185.18499755859375 223.05999755859375,185.18499755859375 223.05999755859375,259.06500244140625 149.17999267578125,259.06500244140625 149.17999267578125,295.7650146484375 223.05999755859375,295.7650146484375 223.05999755859375,367.7650146484375 259.760009765625,367.7650146484375 259.760009765625,295.7650146484375 331.760009765625,295.7650146484375 " />
        <path d="M332.71,92.0050048828125 v-38.12 c0,-28.24 -32.94,-32.94 -32.94,-32.94 H178.35000000000002 c-25.41,0 -30.12,27.29 -30.12,27.29 v43.76 H0 v367.06 h480 V92.0050048828125 H332.71 zM167.06,52.9450048828125 c0,-11.29 14.12,-14.12 14.12,-14.12 h116.71 c13.18,0 16.94,16 16.94,16 v37.18 H167.06 V52.9450048828125 zM351.06,313.1850048828125 h-73.41 v74.35 h-73.41 v-74.35 h-73.41 v-73.41 h73.41 v-72.47 h73.41 v72.47 h73.41 V313.1850048828125 z" />
    </g>
</svg>
